<svg width="317" height="160" viewBox="0 0 317 160" fill="none" xmlns="http://www.w3.org/2000/svg">
<rect x="224.253" y="38.6324" width="70.5914" height="82.7964" rx="11.8752" transform="rotate(0.889566 224.253 38.6324)" stroke="#868688" stroke-width="1.34381"/>
<path d="M221.147 50.1787C221.272 42.1638 227.87 35.7673 235.885 35.8917L283.05 36.6241C291.065 36.7485 297.462 43.3468 297.337 51.3618L297.253 56.7866C297.462 56.6861 297.705 56.646 298.016 56.6508L299.359 56.6716C300.313 56.6864 300.909 57.0654 301.059 58.3674C301.21 59.6695 301.056 69.5643 300.865 70.8611C300.675 72.1579 300.067 72.5181 299.114 72.5033L297.77 72.4825C297.457 72.4776 297.217 72.379 297.013 72.2076L296.839 83.4196C296.974 83.3797 297.117 83.3592 297.264 83.3615C297.577 83.3663 297.826 83.6234 297.821 83.9357L297.49 105.233C297.486 105.545 297.228 105.795 296.916 105.79C296.768 105.787 296.626 105.763 296.493 105.718L296.415 110.731C296.291 118.745 289.693 125.142 281.678 125.018L234.512 124.285C226.497 124.161 220.101 117.562 220.225 109.547L221.147 50.1787Z" stroke="#868688" stroke-width="1.34381" stroke-linejoin="round"/>
<path d="M237.453 27.615C238.431 17.7849 240.125 14.0274 246.745 13.7423C253.365 13.4572 259.362 13.6045 259.362 13.6045C259.362 13.6045 265.361 13.6435 271.969 14.134C278.577 14.6244 280.154 18.4327 280.826 28.2884C281.056 31.6686 281.65 34.0926 282.466 35.9892L235.602 35.2615C235.593 35.2614 235.584 35.2612 235.575 35.2611C236.448 33.3908 237.117 30.9864 237.453 27.615Z" stroke="#868688" stroke-width="1.34381" stroke-linejoin="round"/>
<path d="M233.688 124.672C234.749 126.707 235.536 129.374 235.81 133.391C236.483 143.246 238.06 147.055 244.667 147.545C251.275 148.036 257.274 148.075 257.274 148.075C257.274 148.075 263.272 148.222 269.891 147.937C276.511 147.652 278.206 143.894 279.183 134.064C279.581 130.063 280.449 127.424 281.571 125.423C281.507 125.423 281.443 125.423 281.379 125.422L234.214 124.689C234.038 124.686 233.862 124.681 233.688 124.672Z" stroke="#868688" stroke-width="1.34381" stroke-linejoin="round"/>
<line x1="96" y1="79.7301" x2="103" y2="79.7301" stroke="white"/>
<line x1="112" y1="79.7301" x2="119" y2="79.7301" stroke="white"/>
<line x1="115" y1="104.73" x2="122" y2="104.73" stroke="white"/>
<line x1="128" y1="79.7301" x2="135" y2="79.7301" stroke="white"/>
<line x1="131" y1="104.73" x2="138" y2="104.73" stroke="white"/>
<line x1="144" y1="79.7301" x2="151" y2="79.7301" stroke="white"/>
<line x1="147" y1="104.73" x2="154" y2="104.73" stroke="white"/>
<line x1="160" y1="79.7301" x2="167" y2="79.7301" stroke="white"/>
<line x1="163" y1="104.73" x2="170" y2="104.73" stroke="white"/>
<line x1="176" y1="79.7301" x2="183" y2="79.7301" stroke="white"/>
<line x1="179" y1="104.73" x2="186" y2="104.73" stroke="white"/>
<line x1="192" y1="104.73" x2="199" y2="104.73" stroke="white"/>
<path fill-rule="evenodd" clip-rule="evenodd" d="M219.92 27.479C218.39 27.3371 216.893 27.6548 215.594 28.3973C215.032 28.7317 214.529 29.1619 214.101 29.6732C213.649 30.1482 213.267 30.6957 212.965 31.2999C212.336 32.7027 212.023 34.272 212.05 35.8899C212.028 36.0195 212.032 36.1551 212.062 36.2881C212.091 36.4211 212.145 36.5486 212.22 36.6628C212.295 36.7769 212.389 36.8752 212.497 36.9514C212.606 37.0276 212.725 37.0802 212.848 37.1058C213.087 37.1765 213.333 37.1448 213.534 37.0175C213.734 36.8902 213.873 36.6775 213.92 36.4254C214.356 34.7674 215.188 33.2978 216.337 32.156L217.3 31.1523C218.075 30.3003 219.036 29.6683 220.109 29.3039C220.322 29.281 220.511 29.167 220.635 28.9863C220.758 28.8056 220.807 28.5727 220.77 28.3378C220.742 28.1155 220.639 27.9047 220.483 27.7461C220.326 27.5875 220.125 27.4924 219.92 27.479Z" fill="#6974BA"/>
<path fill-rule="evenodd" clip-rule="evenodd" d="M302.546 36.8589C302.924 35.3695 302.843 33.8411 302.311 32.4427C302.068 31.8358 301.721 31.2716 301.283 30.7696C300.884 30.2492 300.402 29.7861 299.853 29.3938C298.564 28.5548 297.063 28.0019 295.461 27.7766C295.336 27.7353 295.201 27.7182 295.065 27.7264C294.929 27.7346 294.795 27.7679 294.671 27.8242C294.546 27.8805 294.435 27.9586 294.342 28.0537C294.25 28.1487 294.18 28.2586 294.135 28.3765C294.028 28.6013 294.021 28.8494 294.116 29.0673C294.211 29.2851 294.399 29.4553 294.641 29.541C296.211 30.2296 297.533 31.2798 298.483 32.5918L299.324 33.6993C300.045 34.5977 300.52 35.6447 300.714 36.7616C300.703 36.9761 300.786 37.1804 300.946 37.3305C301.105 37.4806 301.327 37.5646 301.565 37.5644C301.789 37.5714 302.013 37.5031 302.194 37.3728C302.375 37.2425 302.5 37.0594 302.546 36.8589Z" fill="#6974BA"/>
<path fill-rule="evenodd" clip-rule="evenodd" d="M203.588 39.4745C203.72 39.4718 203.849 39.4385 203.967 39.3765C204.086 39.3145 204.19 39.2251 204.275 39.1136C204.361 39.0021 204.424 38.8707 204.463 38.7273C204.502 38.5839 204.515 38.4314 204.501 38.2787C204.478 34.9879 205.289 31.8152 206.834 29.1474C207.44 27.9936 208.153 26.923 208.962 25.9534C209.788 25.0015 210.689 24.1393 211.655 23.3765C213.957 21.3811 216.599 19.942 219.435 19.1391C219.661 19.0913 219.857 18.9423 219.98 18.7241C220.104 18.5059 220.146 18.2357 220.096 17.9713C220.072 17.838 220.026 17.7101 219.959 17.5947C219.893 17.4794 219.808 17.379 219.71 17.2993C219.612 17.2196 219.502 17.1621 219.387 17.1302C219.271 17.0983 219.153 17.0925 219.038 17.1132C215.778 17.3511 212.645 18.4168 209.861 20.2347C208.627 21.0437 207.507 22.0542 206.534 23.2369C205.556 24.406 204.728 25.7317 204.073 27.1779C202.578 30.5606 202.044 34.4478 202.542 38.3194C202.548 38.4704 202.579 38.6202 202.635 38.7601C202.691 38.9001 202.77 39.0275 202.868 39.1349C202.965 39.2423 203.079 39.3276 203.202 39.3859C203.326 39.4442 203.457 39.4743 203.588 39.4745Z" fill="#6974BA"/>
<path fill-rule="evenodd" clip-rule="evenodd" d="M296.167 16.8853C296.147 17.0162 296.158 17.1491 296.199 17.276C296.24 17.403 296.31 17.5214 296.405 17.6243C296.501 17.7272 296.619 17.8125 296.754 17.8751C296.889 17.9377 297.037 17.9763 297.19 17.9887C300.436 18.5283 303.424 19.8688 305.789 21.8468C306.822 22.6405 307.755 23.5257 308.573 24.4878C309.369 25.4647 310.065 26.5 310.652 27.5819C312.225 30.1901 313.192 33.0391 313.499 35.9707C313.508 36.2016 313.621 36.4199 313.815 36.5789C314.009 36.7379 314.268 36.825 314.537 36.8216C314.673 36.8205 314.807 36.7965 314.932 36.7508C315.057 36.7052 315.17 36.6388 315.265 36.5556C315.361 36.4724 315.436 36.3739 315.487 36.2658C315.538 36.1577 315.564 36.0422 315.563 35.9258C315.885 32.6729 315.37 29.4034 314.054 26.3497C313.467 24.9958 312.663 23.7202 311.664 22.56C310.679 21.3966 309.514 20.3543 308.201 19.4619C305.123 17.4116 301.384 16.2218 297.484 16.0515C297.334 16.0316 297.181 16.0374 297.034 16.0687C296.886 16.0999 296.747 16.1559 296.625 16.2334C296.502 16.3109 296.399 16.4085 296.32 16.5204C296.242 16.6323 296.19 16.7563 296.167 16.8853Z" fill="#6974BA"/>
<path d="M94.6464 104.877C94.4512 105.072 94.4512 105.388 94.6464 105.584L97.8284 108.766C98.0237 108.961 98.3403 108.961 98.5355 108.766C98.7308 108.57 98.7308 108.254 98.5355 108.059L95.7071 105.23L98.5355 102.402C98.7308 102.206 98.7308 101.89 98.5355 101.695C98.3403 101.499 98.0237 101.499 97.8284 101.695L94.6464 104.877ZM103 105.23V104.73H95V105.23V105.73H103V105.23Z" fill="#6C7CD1"/>
<path d="M200.347 80.7111C200.545 80.5188 200.55 80.2023 200.358 80.0041L197.225 76.7739C197.033 76.5757 196.716 76.5708 196.518 76.7631C196.32 76.9554 196.315 77.2719 196.507 77.4701L199.292 80.3414L196.421 83.1263C196.223 83.3186 196.218 83.6351 196.41 83.8333C196.602 84.0316 196.919 84.0364 197.117 83.8441L200.347 80.7111ZM192 80.2301L191.992 80.73L199.991 80.8521L199.999 80.3522L200.007 79.8522L192.008 79.7302L192 80.2301Z" fill="#6974BA"/>
<rect x="2.56878" y="1.77654" width="76.5425" height="155.682" rx="9.12527" stroke="#868688" stroke-width="0.588727"/>
<rect x="1.05266" y="0.294363" width="79.5746" height="158.645" rx="9.91024" stroke="#868688" stroke-width="0.588727"/>
<path d="M80.6123 46.7448V66.5768H80.9062C81.6726 66.5768 82.2939 65.9554 82.2939 65.1891V48.1324C82.2939 47.366 81.6727 46.7448 80.9062 46.7448H80.6123Z" stroke="#868688" stroke-width="0.588727"/>
<mask id="path-25-inside-1_1185_21683" fill="white">
<path d="M68.5239 4.44202C72.859 4.44225 76.3735 7.95651 76.3735 12.2916V146.938C76.3734 151.273 72.8589 154.787 68.5239 154.788H13.1558C8.82071 154.788 5.30629 151.273 5.30615 146.938L5.30615 12.2916C5.30615 7.95645 8.82063 4.44217 13.1558 4.44202H23.1196V5.65686C23.1197 8.25792 25.2285 10.3668 27.8296 10.3668H53.9438C56.5448 10.3666 58.6527 8.25781 58.6528 5.65686V4.44202H68.5239Z"/>
</mask>
<path d="M68.5239 4.44202L68.524 3.85329H68.5239V4.44202ZM76.3735 146.938L76.9623 146.938V146.938H76.3735ZM68.5239 154.788V155.376H68.524L68.5239 154.788ZM13.1558 154.788L13.1557 155.376H13.1558V154.788ZM5.30615 146.938H4.71743V146.938L5.30615 146.938ZM13.1558 4.44202V3.85329H13.1557L13.1558 4.44202ZM23.1196 4.44202H23.7084V3.85329H23.1196V4.44202ZM23.1196 5.65686H22.5309L22.5309 5.65688L23.1196 5.65686ZM27.8296 10.3668L27.8296 10.9555H27.8296V10.3668ZM53.9438 10.3668V10.9555H53.9439L53.9438 10.3668ZM58.6528 5.65686L59.2416 5.65688V5.65686H58.6528ZM58.6528 4.44202V3.85329H58.0641V4.44202L58.6528 4.44202ZM68.5239 4.44202L68.5239 5.03074C72.5339 5.03096 75.7848 8.28168 75.7848 12.2916H76.3735H76.9623C76.9623 7.63133 73.1841 3.85354 68.524 3.85329L68.5239 4.44202ZM76.3735 12.2916H75.7848V146.938H76.3735H76.9623V12.2916H76.3735ZM76.3735 146.938L75.7848 146.938C75.7847 150.948 72.5338 154.199 68.5239 154.199L68.5239 154.788L68.524 155.376C73.184 155.376 76.9621 151.598 76.9623 146.938L76.3735 146.938ZM68.5239 154.788V154.199H13.1558V154.788V155.376H68.5239V154.788ZM13.1558 154.788L13.1558 154.199C9.14585 154.199 5.895 150.948 5.89488 146.938L5.30615 146.938L4.71743 146.938C4.71757 151.598 8.49556 155.376 13.1557 155.376L13.1558 154.788ZM5.30615 146.938H5.89488L5.89488 12.2916H5.30615H4.71743L4.71743 146.938H5.30615ZM5.30615 12.2916H5.89488C5.89488 8.28162 9.14575 5.03089 13.1558 5.03074L13.1558 4.44202L13.1557 3.85329C8.4955 3.85345 4.71743 7.63129 4.71743 12.2916H5.30615ZM13.1558 4.44202V5.03074H23.1196V4.44202V3.85329H13.1558V4.44202ZM23.1196 4.44202H22.5309V5.65686H23.1196H23.7084V4.44202H23.1196ZM23.1196 5.65686L22.5309 5.65688C22.531 8.58306 24.9034 10.9555 27.8296 10.9555L27.8296 10.3668L27.8296 9.77809C25.5537 9.77806 23.7084 7.93278 23.7084 5.65684L23.1196 5.65686ZM27.8296 10.3668V10.9555H53.9438V10.3668V9.77809H27.8296V10.3668ZM53.9438 10.3668L53.9439 10.9555C56.8701 10.9553 59.2415 8.58283 59.2416 5.65688L58.6528 5.65686L58.0641 5.65684C58.064 7.93279 56.2195 9.7779 53.9438 9.77809L53.9438 10.3668ZM58.6528 5.65686H59.2416V4.44202H58.6528L58.0641 4.44202V5.65686H58.6528ZM58.6528 4.44202V5.03074L68.5239 5.03074V4.44202V3.85329H58.6528V4.44202Z" fill="#868688" mask="url(#path-25-inside-1_1185_21683)"/>
<rect x="35.165" y="6.21844" width="11.5399" height="0.893078" rx="0.446539" stroke="#868688" stroke-width="0.588727"/>
<path d="M50.7886 6.21802C51.051 6.21802 51.2524 6.42497 51.2524 6.66528C51.2523 6.90546 51.0509 7.11157 50.7886 7.11157C50.5263 7.11146 50.3249 6.90539 50.3247 6.66528C50.3247 6.42504 50.5262 6.21813 50.7886 6.21802Z" stroke="#868688" stroke-width="0.588727"/>
<mask id="path-29-inside-2_1185_21683" fill="white">
<path d="M0 62.2419C0 62.1108 0.106302 62.0045 0.237431 62.0045H0.612573V71.5883H0.237431C0.106302 71.5883 0 71.482 0 71.3508V62.2419Z"/>
</mask>
<path d="M0 62.2419C0 62.1108 0.106302 62.0045 0.237431 62.0045H0.612573V71.5883H0.237431C0.106302 71.5883 0 71.482 0 71.3508V62.2419Z" fill="#868688" stroke="#868688" stroke-width="0.612573" mask="url(#path-29-inside-2_1185_21683)"/>
<mask id="path-30-inside-3_1185_21683" fill="white">
<path d="M0 49.4115C0 49.2804 0.106302 49.1741 0.237431 49.1741H0.612573V58.7578H0.237431C0.106302 58.7578 0 58.6515 0 58.5204V49.4115Z"/>
</mask>
<path d="M0 49.4115C0 49.2804 0.106302 49.1741 0.237431 49.1741H0.612573V58.7578H0.237431C0.106302 58.7578 0 58.6515 0 58.5204V49.4115Z" fill="#868688" stroke="#868688" stroke-width="0.612573" mask="url(#path-30-inside-3_1185_21683)"/>
<path d="M0 39.7919C0 39.6607 0.106302 39.5544 0.237431 39.5544H0.612573V44.4792H0.237431C0.106302 44.4792 0 44.3729 0 44.2417V39.7919Z" fill="#868688"/>
</svg>
