<svg width="164" height="185" viewBox="0 0 164 185" fill="none" xmlns="http://www.w3.org/2000/svg">
<rect width="99.5239" height="112.801" rx="11.8752" transform="matrix(0.999887 0.0150024 -0.0160663 0.999871 36.3374 34.8209)" stroke="#868688" stroke-width="1.34381"/>
<path d="M31.9587 50.5529C32.1341 39.6335 41.4369 30.9191 52.7369 31.0886L119.234 32.0863C130.534 32.2559 139.552 41.2452 139.377 52.1646L139.258 59.5553C139.553 59.4183 139.896 59.3637 140.333 59.3703L142.228 59.3987C143.572 59.4188 144.412 59.9351 144.624 61.709C144.836 63.4829 144.62 76.9633 144.351 78.7301C144.082 80.4968 143.225 80.9875 141.881 80.9674L139.987 80.9389C139.545 80.9323 139.207 80.798 138.92 80.5645L138.675 95.8395C138.864 95.785 139.066 95.7572 139.274 95.7603C139.714 95.7669 140.066 96.1171 140.059 96.5425L139.593 125.558C139.586 125.983 139.223 126.323 138.783 126.316C138.575 126.313 138.374 126.279 138.187 126.219L138.077 133.047C137.901 143.967 128.599 152.681 117.299 152.511L50.8019 151.514C39.5018 151.344 30.4836 142.355 30.659 131.435L31.9587 50.5529Z" stroke="#868688" stroke-width="1.34381" stroke-linejoin="round"/>
<path d="M54.947 19.8112C56.3255 6.41898 58.7148 1.29981 68.0476 0.911428C77.3805 0.523046 85.8362 0.72364 85.8362 0.72364C85.8362 0.72364 94.2943 0.776822 103.61 1.44501C112.926 2.1132 115.15 7.30158 116.097 20.7287C116.422 25.3338 117.26 28.6362 118.409 31.22L52.3383 30.2287C52.3253 30.2285 52.3122 30.2283 52.2992 30.2281C53.5308 27.6801 54.4742 24.4043 54.947 19.8112Z" stroke="#868688" stroke-width="1.34381" stroke-linejoin="round"/>
<path d="M49.6385 152.039C51.1351 154.812 52.2452 158.445 52.6314 163.917C53.579 177.345 55.8027 182.533 65.1185 183.201C74.4344 183.869 82.8925 183.922 82.8925 183.922C82.8925 183.922 91.3482 184.123 100.681 183.735C110.014 183.346 112.403 178.227 113.782 164.835C114.343 159.384 115.567 155.789 117.148 153.063C117.058 153.063 116.968 153.062 116.877 153.061L50.3806 152.063C50.1321 152.059 49.8847 152.051 49.6385 152.039Z" stroke="#868688" stroke-width="1.34381" stroke-linejoin="round"/>
<path fill-rule="evenodd" clip-rule="evenodd" d="M28.0847 18.5433C25.9275 18.3499 23.8167 18.7829 21.9855 19.7943C21.1936 20.2499 20.4839 20.836 19.8809 21.5326C19.2435 22.1798 18.7041 22.9257 18.2782 23.7487C17.392 25.66 16.9511 27.7979 16.9886 30.0021C16.9584 30.1787 16.9641 30.3634 17.0053 30.5446C17.0465 30.7258 17.1223 30.8995 17.228 31.055C17.3337 31.2105 17.467 31.3444 17.6195 31.4482C17.772 31.5521 17.9406 31.6237 18.1145 31.6585C18.4511 31.7549 18.7982 31.7117 19.0808 31.5383C19.3635 31.3649 19.5592 31.0751 19.6256 30.7316C20.2405 28.4729 21.4132 26.4707 23.0324 24.9151L24.3904 23.5477C25.4836 22.3869 26.8376 21.526 28.3509 21.0295C28.6519 20.9983 28.9181 20.8429 29.0923 20.5968C29.2665 20.3506 29.3347 20.0334 29.2823 19.7133C29.2429 19.4105 29.0987 19.1233 28.8775 18.9072C28.6564 18.6911 28.3739 18.5615 28.0847 18.5433Z" fill="#6974BA"/>
<path fill-rule="evenodd" clip-rule="evenodd" d="M148.114 31.6772C148.691 29.5699 148.65 27.3957 147.995 25.3949C147.694 24.5263 147.251 23.7159 146.681 22.9914C146.165 22.2419 145.536 21.5717 144.811 21.0003C143.109 19.7756 141.105 18.9523 138.951 18.592C138.784 18.5302 138.603 18.5026 138.419 18.5108C138.235 18.519 138.052 18.563 137.882 18.6399C137.711 18.7168 137.557 18.825 137.428 18.9577C137.3 19.0905 137.199 19.2449 137.134 19.4114C136.98 19.7282 136.959 20.0807 137.077 20.3927C137.195 20.7046 137.442 20.9512 137.765 21.0791C139.854 22.097 141.594 23.6226 142.817 25.511L143.904 27.1062C144.838 28.4011 145.433 29.9009 145.644 31.4932C145.62 31.7977 145.723 32.0901 145.932 32.3074C146.14 32.5248 146.437 32.6498 146.758 32.6554C147.06 32.6709 147.366 32.5795 147.616 32.3989C147.867 32.2182 148.044 31.9611 148.114 31.6772Z" fill="#6974BA"/>
<path fill-rule="evenodd" clip-rule="evenodd" d="M5.05852 35.2057C5.24519 35.2021 5.42716 35.1567 5.59365 35.0722C5.76014 34.9877 5.90776 34.8659 6.02776 34.714C6.14776 34.5621 6.23771 34.3832 6.29226 34.1878C6.34681 33.9924 6.36487 33.7846 6.34535 33.5767C6.31365 29.0933 7.45688 24.7709 9.63566 21.1363C10.4896 19.5644 11.4947 18.1059 12.6346 16.7849C13.7999 15.4881 15.0707 14.3134 16.4324 13.2742C19.677 10.5558 23.4021 8.59518 27.4008 7.50129C27.7195 7.43611 27.9955 7.23317 28.1697 6.93586C28.344 6.63855 28.4026 6.27047 28.3332 5.91033C28.2991 5.72872 28.2334 5.55437 28.1399 5.39725C28.0464 5.24014 27.9269 5.10336 27.7884 4.99476C27.6498 4.88615 27.4949 4.80786 27.3325 4.76436C27.17 4.72087 27.0033 4.71303 26.8418 4.74129C22.2455 5.06532 17.8276 6.51725 13.9021 8.99388C12.1623 10.0961 10.5839 11.4728 9.21269 13.084C7.83346 14.6767 6.66595 16.4829 5.74211 18.4531C3.63462 23.0617 2.88147 28.3575 3.58342 33.6321C3.59178 33.8377 3.63669 34.0418 3.71554 34.2325C3.79439 34.4232 3.90563 34.5967 4.04281 34.7431C4.17999 34.8894 4.34039 35.0056 4.51473 35.0851C4.68908 35.1645 4.87391 35.2055 5.05852 35.2057Z" fill="#6974BA"/>
<path fill-rule="evenodd" clip-rule="evenodd" d="M136.033 5.80736C136.003 5.99339 136.015 6.18228 136.067 6.36284C136.119 6.5434 136.211 6.71196 136.338 6.85852C136.464 7.00508 136.622 7.12667 136.803 7.21607C136.983 7.30548 137.182 7.36088 137.388 7.379C141.762 8.15603 145.767 10.0708 148.915 12.8898C150.293 14.0212 151.532 15.2824 152.614 16.6525C153.667 18.0436 154.583 19.5173 155.349 21.057C157.413 24.7692 158.651 28.8219 158.996 32.99C159.002 33.3182 159.15 33.6289 159.408 33.8555C159.666 34.0821 160.014 34.2068 160.378 34.2028C160.561 34.2016 160.742 34.1678 160.912 34.1033C161.082 34.0388 161.237 33.9449 161.368 33.8269C161.499 33.7089 161.603 33.5691 161.675 33.4157C161.746 33.2622 161.784 33.098 161.786 32.9325C162.299 28.3098 161.681 23.6609 159.976 19.3161C159.216 17.3897 158.159 15.5741 156.837 13.9219C155.534 12.265 153.984 10.7799 152.232 9.50725C148.122 6.58336 143.098 4.88045 137.832 4.62633C137.631 4.59755 137.424 4.60534 137.224 4.64925C137.024 4.69317 136.835 4.77233 136.667 4.88216C136.5 4.992 136.358 5.13032 136.249 5.28913C136.14 5.44793 136.067 5.62408 136.033 5.80736Z" fill="#6974BA"/>
</svg>
