<svg width="152" height="17" viewBox="0 0 152 17" fill="none" xmlns="http://www.w3.org/2000/svg">
<path d="M9.34374 9.632C9.62108 9.632 9.81841 9.57334 9.93574 9.456C10.0637 9.328 10.1277 9.104 10.1277 8.784V4.496C10.1277 4.38934 10.1811 4.336 10.2877 4.336H11.3117C11.4184 4.336 11.4717 4.38934 11.4717 4.496V8.608C11.4717 8.94934 11.6051 9.20534 11.8717 9.376C12.1384 9.54667 12.4851 9.632 12.9117 9.632H13.0877C13.3011 9.632 13.4611 9.68 13.5677 9.776C13.6744 9.86134 13.7277 10.0107 13.7277 10.224C13.7277 10.5013 13.6744 10.6827 13.5677 10.768C13.4717 10.8427 13.3117 10.88 13.0877 10.88H12.7517C12.4104 10.88 12.1117 10.8107 11.8557 10.672C11.5997 10.5333 11.4024 10.3253 11.2637 10.048C11.1251 10.3253 10.9171 10.5333 10.6397 10.672C10.3731 10.8107 10.0157 10.88 9.56774 10.88H1.87174C1.19974 10.88 0.719742 10.72 0.431742 10.4C0.143742 10.0693 -0.00025779 9.55734 -0.00025779 8.864V5.52C-0.00025779 5.41334 0.0530756 5.36 0.159742 5.36H1.18374C1.29041 5.36 1.34374 5.41334 1.34374 5.52V8.784C1.34374 9.104 1.40241 9.328 1.51974 9.456C1.64774 9.57334 1.84508 9.632 2.11174 9.632H9.34374ZM5.13574 13.856C5.02908 13.856 4.97574 13.8027 4.97574 13.696V12.528C4.97574 12.4213 5.02908 12.368 5.13574 12.368H6.22374C6.33041 12.368 6.38374 12.4213 6.38374 12.528V13.696C6.38374 13.8027 6.33041 13.856 6.22374 13.856H5.13574ZM16.7235 5.296C16.3608 5.296 16.0248 5.37067 15.7155 5.52C15.4168 5.66934 15.1502 5.872 14.9155 6.128C14.8515 6.20267 14.7768 6.208 14.6915 6.144L13.9875 5.568C13.8915 5.49334 13.8755 5.41867 13.9395 5.344C14.2382 4.97067 14.6062 4.66134 15.0435 4.416C15.4915 4.17067 16.0355 4.048 16.6755 4.048C17.4115 4.048 18.0142 4.16534 18.4835 4.4C18.9528 4.624 19.3208 4.92267 19.5875 5.296C19.8648 5.66934 20.0568 6.10134 20.1635 6.592C20.2702 7.08267 20.3235 7.58934 20.3235 8.112C20.3235 8.208 20.3182 8.29867 20.3075 8.384C20.3075 8.46934 20.3075 8.55467 20.3075 8.64C20.3288 8.97067 20.4675 9.22134 20.7235 9.392C20.9902 9.552 21.3315 9.632 21.7475 9.632H21.9235C22.1368 9.632 22.2968 9.68 22.4035 9.776C22.5102 9.86134 22.5635 10.0107 22.5635 10.224C22.5635 10.5013 22.5102 10.6827 22.4035 10.768C22.3075 10.8427 22.1475 10.88 21.9235 10.88H21.5875C21.2248 10.88 20.8995 10.8053 20.6115 10.656C20.3235 10.496 20.1208 10.2613 20.0035 9.952C19.8222 10.2933 19.5662 10.5333 19.2355 10.672C18.9155 10.8107 18.5102 10.88 18.0195 10.88H12.9795C12.5528 10.88 12.3395 10.6667 12.3395 10.24C12.3395 9.97334 12.3928 9.808 12.4995 9.744C12.5955 9.66934 12.7555 9.632 12.9795 9.632H17.5235C17.8222 9.632 18.0622 9.61067 18.2435 9.568C18.4248 9.51467 18.5635 9.42934 18.6595 9.312C18.7555 9.19467 18.8195 9.04 18.8515 8.848C18.8835 8.64534 18.8995 8.4 18.8995 8.112C18.8995 7.696 18.8622 7.31734 18.7875 6.976C18.7128 6.624 18.5902 6.32534 18.4195 6.08C18.2595 5.824 18.0408 5.632 17.7635 5.504C17.4862 5.36534 17.1395 5.296 16.7235 5.296ZM21.917 10.88C21.7037 10.88 21.5437 10.8427 21.437 10.768C21.3303 10.6933 21.277 10.544 21.277 10.32C21.277 10.0533 21.3303 9.872 21.437 9.776C21.533 9.68 21.693 9.632 21.917 9.632H23.021C23.2877 9.632 23.4797 9.57334 23.597 9.456C23.725 9.328 23.789 9.104 23.789 8.784V4.496C23.789 4.38934 23.8423 4.336 23.949 4.336H24.973C25.0797 4.336 25.133 4.38934 25.133 4.496V8.864C25.133 9.55734 24.989 10.0693 24.701 10.4C24.413 10.72 23.933 10.88 23.261 10.88H21.917ZM24.893 2.752C24.7863 2.752 24.733 2.69867 24.733 2.592V1.424C24.733 1.31734 24.7863 1.264 24.893 1.264H25.981C26.0877 1.264 26.141 1.31734 26.141 1.424V2.592C26.141 2.69867 26.0877 2.752 25.981 2.752H24.893ZM22.941 2.752C22.8343 2.752 22.781 2.69867 22.781 2.592V1.424C22.781 1.31734 22.8343 1.264 22.941 1.264H24.029C24.1357 1.264 24.189 1.31734 24.189 1.424V2.592C24.189 2.69867 24.1357 2.752 24.029 2.752H22.941ZM31.9426 7.28C31.9853 7.20534 32.06 7.2 32.1666 7.264L33.0466 7.744C33.132 7.79734 33.148 7.86667 33.0946 7.952C32.9026 8.25067 32.716 8.61867 32.5346 9.056C32.364 9.49334 32.2786 9.952 32.2786 10.432C32.2786 10.8907 32.3533 11.2693 32.5026 11.568C32.6626 11.8773 32.8653 12.1173 33.1106 12.288C33.356 12.4693 33.6226 12.5973 33.9106 12.672C34.1986 12.7467 34.4813 12.784 34.7586 12.784C35.4413 12.784 36.0013 12.608 36.4386 12.256C36.876 11.904 37.0946 11.3333 37.0946 10.544V5.872C37.0946 5.76534 37.148 5.712 37.2546 5.712H38.2786C38.3853 5.712 38.4386 5.76534 38.4386 5.872V8.544C38.4386 8.90667 38.5666 9.17867 38.8226 9.36C39.0893 9.54134 39.4413 9.632 39.8786 9.632H39.9426C40.156 9.632 40.316 9.68 40.4226 9.776C40.5293 9.86134 40.5826 10.0107 40.5826 10.224C40.5826 10.5013 40.5293 10.6827 40.4226 10.768C40.3266 10.8427 40.1666 10.88 39.9426 10.88H39.7186C39.164 10.88 38.7373 10.7093 38.4386 10.368V10.56C38.4386 11.6587 38.1133 12.5173 37.4626 13.136C36.8226 13.7547 35.8946 14.064 34.6786 14.064C34.1026 14.064 33.58 13.984 33.1106 13.824C32.652 13.6747 32.2573 13.4507 31.9266 13.152C31.6066 12.8533 31.356 12.4853 31.1746 12.048C30.9933 11.6213 30.9026 11.1253 30.9026 10.56C30.9026 9.93067 31.004 9.328 31.2066 8.752C31.42 8.16534 31.6653 7.67467 31.9426 7.28ZM34.6786 5.312C34.572 5.312 34.5186 5.25867 34.5186 5.152V3.984C34.5186 3.87734 34.572 3.824 34.6786 3.824H35.7666C35.8733 3.824 35.9266 3.87734 35.9266 3.984V5.152C35.9266 5.25867 35.8733 5.312 35.7666 5.312H34.6786ZM44.7802 10.992C44.2789 10.992 43.8362 10.9227 43.4522 10.784C43.0682 10.6347 42.7429 10.4053 42.4762 10.096C42.2522 10.4373 41.9642 10.656 41.6122 10.752C41.2602 10.8373 40.9349 10.88 40.6362 10.88H39.9482C39.5216 10.88 39.3082 10.6667 39.3082 10.24C39.3082 9.97334 39.3616 9.808 39.4682 9.744C39.5642 9.66934 39.7242 9.632 39.9482 9.632H40.7482C40.8656 9.632 40.9829 9.61067 41.1002 9.568C41.2176 9.51467 41.3242 9.43467 41.4202 9.328C41.5162 9.21067 41.5909 9.06134 41.6442 8.88C41.7082 8.688 41.7402 8.45334 41.7402 8.176C41.7296 8.06934 41.7242 7.968 41.7242 7.872C41.7242 7.76534 41.7242 7.65334 41.7242 7.536C41.7242 6.30934 41.9962 5.424 42.5402 4.88C43.0842 4.32534 43.8309 4.048 44.7802 4.048C45.7296 4.048 46.4762 4.32534 47.0202 4.88C47.5642 5.424 47.8362 6.30934 47.8362 7.536C47.8362 8.144 47.7616 8.66667 47.6122 9.104C47.4736 9.54134 47.2709 9.89867 47.0042 10.176C46.7482 10.4533 46.4282 10.6613 46.0442 10.8C45.6709 10.928 45.2496 10.992 44.7802 10.992ZM44.7802 5.296C44.1829 5.296 43.7456 5.49334 43.4682 5.888C43.2016 6.28267 43.0682 6.832 43.0682 7.536C43.0682 8.304 43.2016 8.864 43.4682 9.216C43.7456 9.568 44.1829 9.744 44.7802 9.744C45.3776 9.744 45.8096 9.568 46.0762 9.216C46.3536 8.864 46.4922 8.304 46.4922 7.536C46.4922 6.832 46.3536 6.28267 46.0762 5.888C45.8096 5.49334 45.3776 5.296 44.7802 5.296ZM57.7576 4.048V3.36C57.7576 3.25334 57.811 3.2 57.9176 3.2H58.9416C59.0483 3.2 59.1016 3.25334 59.1016 3.36V8.784C59.1016 9.104 59.1603 9.328 59.2776 9.456C59.4056 9.57334 59.603 9.632 59.8696 9.632H60.5736C61.0003 9.632 61.2136 9.84534 61.2136 10.272C61.2136 10.5387 61.1603 10.7093 61.0536 10.784C60.9576 10.848 60.7976 10.88 60.5736 10.88H59.6296C59.107 10.88 58.6963 10.784 58.3976 10.592C58.1096 10.3893 57.9176 10.0587 57.8216 9.6C57.6083 9.792 57.3523 9.936 57.0536 10.032C56.755 10.128 56.4296 10.176 56.0776 10.176C55.6616 10.176 55.2723 10.1173 54.9096 10C54.5576 9.88267 54.2483 9.70667 53.9816 9.472C53.7256 9.22667 53.523 8.92267 53.3736 8.56C53.2243 8.18667 53.1496 7.74934 53.1496 7.248C53.1496 6.65067 53.235 6.14934 53.4056 5.744C53.5763 5.33867 53.8003 5.01334 54.0776 4.768C54.355 4.512 54.675 4.33067 55.0376 4.224C55.411 4.10667 55.795 4.048 56.1896 4.048H57.7576ZM56.0936 8.928C56.7016 8.928 57.1283 8.752 57.3736 8.4C57.6296 8.03734 57.7576 7.536 57.7576 6.896V5.296H56.1896C55.6883 5.296 55.2776 5.44 54.9576 5.728C54.6483 6.00534 54.4936 6.512 54.4936 7.248C54.4936 7.80267 54.6323 8.224 54.9096 8.512C55.187 8.78934 55.5816 8.928 56.0936 8.928ZM56.6536 2.112C56.547 2.112 56.4936 2.05867 56.4936 1.952V0.784004C56.4936 0.677338 56.547 0.624004 56.6536 0.624004H57.7416C57.8483 0.624004 57.9016 0.677338 57.9016 0.784004V1.952C57.9016 2.05867 57.8483 2.112 57.7416 2.112H56.6536ZM54.7016 2.112C54.595 2.112 54.5416 2.05867 54.5416 1.952V0.784004C54.5416 0.677338 54.595 0.624004 54.7016 0.624004H55.7896C55.8963 0.624004 55.9496 0.677338 55.9496 0.784004V1.952C55.9496 2.05867 55.8963 2.112 55.7896 2.112H54.7016ZM60.5732 10.88C60.3599 10.88 60.1999 10.8427 60.0932 10.768C59.9866 10.6933 59.9332 10.544 59.9332 10.32C59.9332 10.0533 59.9866 9.872 60.0932 9.776C60.1892 9.68 60.3492 9.632 60.5732 9.632H61.6772C61.9439 9.632 62.1359 9.57334 62.2532 9.456C62.3812 9.328 62.4452 9.104 62.4452 8.784V4.496C62.4452 4.38934 62.4986 4.336 62.6052 4.336H63.6292C63.7359 4.336 63.7892 4.38934 63.7892 4.496V8.864C63.7892 9.55734 63.6452 10.0693 63.3572 10.4C63.0692 10.72 62.5892 10.88 61.9172 10.88H60.5732ZM63.2132 13.856C63.1066 13.856 63.0532 13.8027 63.0532 13.696V12.528C63.0532 12.4213 63.1066 12.368 63.2132 12.368H64.3012C64.4079 12.368 64.4612 12.4213 64.4612 12.528V13.696C64.4612 13.8027 64.4079 13.856 64.3012 13.856H63.2132ZM61.2612 13.856C61.1546 13.856 61.1012 13.8027 61.1012 13.696V12.528C61.1012 12.4213 61.1546 12.368 61.2612 12.368H62.3492C62.4559 12.368 62.5092 12.4213 62.5092 12.528V13.696C62.5092 13.8027 62.4559 13.856 62.3492 13.856H61.2612ZM66.1151 0.160005C66.1151 0.0533381 66.1685 4.76837e-06 66.2751 4.76837e-06H67.2991C67.4058 4.76837e-06 67.4591 0.0533381 67.4591 0.160005V8.784C67.4591 9.104 67.5178 9.328 67.6351 9.456C67.7631 9.57334 67.9605 9.632 68.2271 9.632H68.9311C69.3578 9.632 69.5711 9.84534 69.5711 10.272C69.5711 10.5387 69.5178 10.7093 69.4111 10.784C69.3151 10.848 69.1551 10.88 68.9311 10.88H67.9871C67.3151 10.88 66.8351 10.72 66.5471 10.4C66.2591 10.0693 66.1151 9.55734 66.1151 8.864V0.160005ZM76.3086 9.632C76.4153 9.632 76.4686 9.68534 76.4686 9.792V10.72C76.4686 10.8267 76.4153 10.88 76.3086 10.88H68.9326C68.506 10.88 68.2926 10.6667 68.2926 10.24C68.2926 9.97334 68.346 9.808 68.4526 9.744C68.5486 9.66934 68.7086 9.632 68.9326 9.632H70.7566C70.5113 9.38667 70.3033 9.07734 70.1326 8.704C69.962 8.33067 69.8766 7.88267 69.8766 7.36C69.8766 7.02934 69.9246 6.672 70.0206 6.288C70.1166 5.89334 70.2926 5.53067 70.5486 5.2C70.8046 4.86934 71.1513 4.59734 71.5886 4.384C72.0366 4.16 72.6073 4.048 73.3006 4.048C73.93 4.048 74.474 4.16534 74.9326 4.4C75.3913 4.624 75.7593 4.93867 76.0366 5.344C76.09 5.42934 76.074 5.504 75.9886 5.568L75.2846 6.144C75.1993 6.208 75.1246 6.20267 75.0606 6.128C74.5806 5.57334 73.978 5.296 73.2526 5.296C72.5913 5.296 72.1006 5.49334 71.7806 5.888C71.4606 6.272 71.3006 6.75734 71.3006 7.344C71.3006 7.73867 71.3646 8.07467 71.4926 8.352C71.6206 8.62934 71.7646 8.85867 71.9246 9.04C72.0953 9.22134 72.266 9.36 72.4366 9.456C72.6073 9.54134 72.7406 9.6 72.8366 9.632H76.3086ZM77.3426 14.064C77.236 14.064 77.1826 14.0107 77.1826 13.904V12.976C77.1826 12.8693 77.236 12.816 77.3426 12.816H77.7106C78.5746 12.816 79.0066 12.3627 79.0066 11.456V4.496C79.0066 4.38934 79.06 4.336 79.1666 4.336H80.1906C80.2973 4.336 80.3506 4.38934 80.3506 4.496V11.424C80.3506 12.288 80.132 12.944 79.6946 13.392C79.2573 13.84 78.6173 14.064 77.7746 14.064H77.3426ZM92.2695 8.496C92.6108 8.624 92.9415 8.75734 93.2615 8.896C93.5815 9.024 93.8908 9.14667 94.1895 9.264C94.4988 9.37067 94.8028 9.46134 95.1015 9.536C95.4002 9.6 95.7042 9.632 96.0135 9.632H97.3095C97.5228 9.632 97.6828 9.66934 97.7895 9.744C97.8962 9.81867 97.9495 9.968 97.9495 10.192C97.9495 10.4587 97.8962 10.64 97.7895 10.736C97.6935 10.832 97.5335 10.88 97.3095 10.88H96.1735C96.2268 10.9653 96.2908 11.104 96.3655 11.296C96.4402 11.4987 96.4775 11.7173 96.4775 11.952C96.4775 12.208 96.4242 12.4587 96.3175 12.704C96.2215 12.96 96.0562 13.1893 95.8215 13.392C95.5868 13.5947 95.2775 13.7547 94.8935 13.872C94.5095 14 94.0402 14.064 93.4855 14.064H89.7415C88.4935 14.064 87.5442 13.7493 86.8935 13.12C86.2428 12.5013 85.9175 11.648 85.9175 10.56C85.9175 9.93067 86.0188 9.328 86.2215 8.752C86.4348 8.16534 86.6802 7.67467 86.9575 7.28C87.0002 7.20534 87.0748 7.2 87.1815 7.264L88.0615 7.744C88.1468 7.79734 88.1628 7.86667 88.1095 7.952C87.9175 8.25067 87.7308 8.61867 87.5495 9.056C87.3788 9.49334 87.2935 9.952 87.2935 10.432C87.2935 10.8693 87.3628 11.2373 87.5015 11.536C87.6508 11.8453 87.8482 12.0907 88.0935 12.272C88.3388 12.4533 88.6162 12.5813 88.9255 12.656C89.2455 12.7413 89.5815 12.784 89.9335 12.784H93.4695C94.1095 12.784 94.5522 12.688 94.7975 12.496C95.0535 12.304 95.1815 12.0747 95.1815 11.808C95.1815 11.5733 95.1068 11.3707 94.9575 11.2C94.8188 11.0293 94.6055 10.8747 94.3175 10.736C94.0402 10.5867 93.6882 10.4373 93.2615 10.288C92.8455 10.1387 92.3655 9.96267 91.8215 9.76C91.7255 9.728 91.6935 9.664 91.7255 9.568L92.0775 8.608C92.1095 8.50134 92.1735 8.464 92.2695 8.496ZM91.5975 16.832C91.4908 16.832 91.4375 16.7787 91.4375 16.672V15.504C91.4375 15.3973 91.4908 15.344 91.5975 15.344H92.6855C92.7922 15.344 92.8455 15.3973 92.8455 15.504V16.672C92.8455 16.7787 92.7922 16.832 92.6855 16.832H91.5975ZM89.6455 16.832C89.5388 16.832 89.4855 16.7787 89.4855 16.672V15.504C89.4855 15.3973 89.5388 15.344 89.6455 15.344H90.7335C90.8402 15.344 90.8935 15.3973 90.8935 15.504V16.672C90.8935 16.7787 90.8402 16.832 90.7335 16.832H89.6455ZM97.4196 10.88C97.1956 10.88 97.0356 10.8427 96.9396 10.768C96.833 10.6827 96.7796 10.5013 96.7796 10.224C96.7796 10.0107 96.833 9.86134 96.9396 9.776C97.0463 9.68 97.2063 9.632 97.4196 9.632H99.2276C98.9183 9.10934 98.7636 8.41067 98.7636 7.536C98.7636 6.928 98.8383 6.40534 98.9876 5.968C99.1476 5.52 99.3663 5.15734 99.6436 4.88C99.921 4.592 100.241 4.384 100.604 4.256C100.977 4.11734 101.382 4.048 101.82 4.048C102.769 4.048 103.516 4.32534 104.06 4.88C104.604 5.424 104.876 6.30934 104.876 7.536C104.876 8.144 104.801 8.66134 104.652 9.088C104.513 9.51467 104.31 9.86134 104.044 10.128C103.788 10.384 103.468 10.576 103.084 10.704C102.71 10.8213 102.289 10.88 101.82 10.88H97.4196ZM101.82 5.296C101.254 5.296 100.828 5.488 100.54 5.872C100.252 6.256 100.108 6.77867 100.108 7.44C100.108 8.22934 100.241 8.79467 100.508 9.136C100.785 9.46667 101.222 9.632 101.82 9.632C102.417 9.632 102.849 9.47734 103.116 9.168C103.393 8.848 103.532 8.304 103.532 7.536C103.532 6.832 103.393 6.28267 103.116 5.888C102.849 5.49334 102.417 5.296 101.82 5.296ZM101.26 2.752C101.153 2.752 101.1 2.69867 101.1 2.592V1.424C101.1 1.31734 101.153 1.264 101.26 1.264H102.348C102.454 1.264 102.508 1.31734 102.508 1.424V2.592C102.508 2.69867 102.454 2.752 102.348 2.752H101.26ZM119.732 9.632C120.009 9.632 120.206 9.57334 120.324 9.456C120.452 9.328 120.516 9.104 120.516 8.784V0.160005C120.516 0.0533381 120.569 4.76837e-06 120.676 4.76837e-06H121.7C121.806 4.76837e-06 121.86 0.0533381 121.86 0.160005V8.544C121.86 8.90667 121.988 9.17867 122.244 9.36C122.51 9.54134 122.862 9.632 123.3 9.632H123.476C123.689 9.632 123.849 9.68 123.956 9.776C124.062 9.86134 124.116 10.0107 124.116 10.224C124.116 10.5013 124.062 10.6827 123.956 10.768C123.86 10.8427 123.7 10.88 123.476 10.88H123.14C122.798 10.88 122.5 10.8107 122.244 10.672C121.988 10.5333 121.79 10.3253 121.652 10.048C121.513 10.3253 121.305 10.5333 121.028 10.672C120.761 10.8107 120.404 10.88 119.956 10.88H112.26C111.588 10.88 111.108 10.72 110.82 10.4C110.532 10.0693 110.388 9.55734 110.388 8.864V5.52C110.388 5.41334 110.441 5.36 110.548 5.36H111.572C111.678 5.36 111.732 5.41334 111.732 5.52V8.784C111.732 9.104 111.79 9.328 111.908 9.456C112.036 9.57334 112.233 9.632 112.5 9.632H119.732ZM116.468 5.712C116.596 5.712 116.676 5.68534 116.708 5.632C116.74 5.57867 116.756 5.49334 116.756 5.376V5.056C116.756 4.78934 116.612 4.656 116.324 4.656H115.46C115.31 4.656 115.236 4.58134 115.236 4.432V4.16C115.236 4.10667 115.241 4.06934 115.252 4.048C115.273 4.016 115.294 3.98934 115.316 3.968L116.58 2.464C116.633 2.41067 116.681 2.38934 116.724 2.4C116.777 2.4 116.814 2.41067 116.836 2.432L117.156 2.704C117.209 2.75734 117.225 2.81067 117.204 2.864C117.193 2.90667 117.177 2.944 117.156 2.976L116.34 3.936H116.596C117.225 3.936 117.54 4.30934 117.54 5.056V5.344C117.54 5.77067 117.465 6.05867 117.316 6.208C117.177 6.35734 116.942 6.432 116.612 6.432H114.804C114.697 6.432 114.644 6.37867 114.644 6.272V5.872C114.644 5.76534 114.697 5.712 114.804 5.712H116.468ZM127.591 4.048C128.135 4.048 128.605 4.12267 128.999 4.272C129.394 4.41067 129.719 4.608 129.975 4.864C130.242 5.12 130.439 5.42934 130.567 5.792C130.695 6.144 130.759 6.53334 130.759 6.96C130.759 7.504 130.631 8.01067 130.375 8.48C130.13 8.94934 129.783 9.33867 129.335 9.648C129.389 9.63734 129.469 9.632 129.575 9.632H131.799C132.013 9.632 132.173 9.66934 132.279 9.744C132.386 9.81867 132.439 9.968 132.439 10.192C132.439 10.4587 132.386 10.64 132.279 10.736C132.183 10.832 132.023 10.88 131.799 10.88H129.671C129.287 10.88 128.925 10.864 128.583 10.832C128.242 10.8 127.917 10.688 127.607 10.496C127.255 10.688 126.877 10.8 126.471 10.832C126.077 10.864 125.725 10.88 125.415 10.88H123.479C123.053 10.88 122.839 10.6667 122.839 10.24C122.839 9.97334 122.893 9.808 122.999 9.744C123.095 9.66934 123.255 9.632 123.479 9.632H125.831C125.394 9.32267 125.047 8.93867 124.791 8.48C124.546 8.01067 124.423 7.504 124.423 6.96C124.423 6.53334 124.487 6.144 124.615 5.792C124.743 5.42934 124.935 5.12 125.191 4.864C125.458 4.608 125.789 4.41067 126.183 4.272C126.578 4.12267 127.047 4.048 127.591 4.048ZM127.591 5.296C127.079 5.296 126.658 5.44534 126.327 5.744C125.997 6.04267 125.831 6.47467 125.831 7.04C125.831 7.616 126.002 8.10134 126.343 8.496C126.685 8.88 127.101 9.168 127.591 9.36C128.082 9.168 128.498 8.88 128.839 8.496C129.181 8.10134 129.351 7.616 129.351 7.04C129.351 6.47467 129.186 6.04267 128.855 5.744C128.525 5.44534 128.103 5.296 127.591 5.296ZM128.023 2.752C127.917 2.752 127.863 2.69867 127.863 2.592V1.424C127.863 1.31734 127.917 1.264 128.023 1.264H129.111C129.218 1.264 129.271 1.31734 129.271 1.424V2.592C129.271 2.69867 129.218 2.752 129.111 2.752H128.023ZM126.071 2.752C125.965 2.752 125.911 2.69867 125.911 2.592V1.424C125.911 1.31734 125.965 1.264 126.071 1.264H127.159C127.266 1.264 127.319 1.31734 127.319 1.424V2.592C127.319 2.69867 127.266 2.752 127.159 2.752H126.071ZM131.904 10.88C131.68 10.88 131.52 10.8427 131.424 10.768C131.317 10.6827 131.264 10.5013 131.264 10.224C131.264 10.0107 131.317 9.86134 131.424 9.776C131.531 9.68 131.691 9.632 131.904 9.632H133.712C133.403 9.10934 133.248 8.41067 133.248 7.536C133.248 6.928 133.323 6.40534 133.472 5.968C133.632 5.52 133.851 5.15734 134.128 4.88C134.405 4.592 134.725 4.384 135.088 4.256C135.461 4.11734 135.867 4.048 136.304 4.048C137.253 4.048 138 4.32534 138.544 4.88C139.088 5.424 139.36 6.30934 139.36 7.536C139.36 8.144 139.285 8.66134 139.136 9.088C138.997 9.51467 138.795 9.86134 138.528 10.128C138.272 10.384 137.952 10.576 137.568 10.704C137.195 10.8213 136.773 10.88 136.304 10.88H131.904ZM136.304 5.296C135.739 5.296 135.312 5.488 135.024 5.872C134.736 6.256 134.592 6.77867 134.592 7.44C134.592 8.22934 134.725 8.79467 134.992 9.136C135.269 9.46667 135.707 9.632 136.304 9.632C136.901 9.632 137.333 9.47734 137.6 9.168C137.877 8.848 138.016 8.304 138.016 7.536C138.016 6.832 137.877 6.28267 137.6 5.888C137.333 5.49334 136.901 5.296 136.304 5.296ZM135.744 2.752C135.637 2.752 135.584 2.69867 135.584 2.592V1.424C135.584 1.31734 135.637 1.264 135.744 1.264H136.832C136.939 1.264 136.992 1.31734 136.992 1.424V2.592C136.992 2.69867 136.939 2.752 136.832 2.752H135.744ZM142.74 10.72C142.74 10.8267 142.687 10.88 142.58 10.88H141.556C141.45 10.88 141.396 10.8267 141.396 10.72V0.160005C141.396 0.0533381 141.45 4.76837e-06 141.556 4.76837e-06H142.58C142.687 4.76837e-06 142.74 0.0533381 142.74 0.160005V10.72ZM144.014 14.064C143.908 14.064 143.854 14.0107 143.854 13.904V12.976C143.854 12.8693 143.908 12.816 144.014 12.816H144.382C145.246 12.816 145.678 12.3627 145.678 11.456V4.496C145.678 4.38934 145.732 4.336 145.838 4.336H146.862C146.969 4.336 147.022 4.38934 147.022 4.496V8.544C147.022 8.90667 147.15 9.17867 147.406 9.36C147.673 9.54134 148.025 9.632 148.462 9.632H148.638C148.852 9.632 149.012 9.68 149.118 9.776C149.225 9.86134 149.278 10.0107 149.278 10.224C149.278 10.5013 149.225 10.6827 149.118 10.768C149.022 10.8427 148.862 10.88 148.638 10.88H148.302C147.748 10.88 147.321 10.7093 147.022 10.368V11.424C147.022 12.288 146.804 12.944 146.366 13.392C145.929 13.84 145.289 14.064 144.446 14.064H144.014ZM148.748 10.88C148.534 10.88 148.374 10.8427 148.268 10.768C148.161 10.6933 148.108 10.544 148.108 10.32C148.108 10.0533 148.161 9.872 148.268 9.776C148.364 9.68 148.524 9.632 148.748 9.632H149.756C150.022 9.632 150.214 9.57334 150.332 9.456C150.46 9.328 150.524 9.104 150.524 8.784V4.496C150.524 4.38934 150.577 4.336 150.684 4.336H151.708C151.814 4.336 151.868 4.38934 151.868 4.496V8.864C151.868 9.55734 151.724 10.0693 151.436 10.4C151.148 10.72 150.668 10.88 149.996 10.88H148.748ZM150.652 2.752C150.545 2.752 150.492 2.69867 150.492 2.592V1.424C150.492 1.31734 150.545 1.264 150.652 1.264H151.74C151.846 1.264 151.9 1.31734 151.9 1.424V2.592C151.9 2.69867 151.846 2.752 151.74 2.752H150.652Z" fill="url(#paint0_linear_1288_4353)"/>
<defs>
<linearGradient id="paint0_linear_1288_4353" x1="76.4014" y1="-11.12" x2="76.4014" y2="10.88" gradientUnits="userSpaceOnUse">
<stop stop-color="#51559D"/>
<stop offset="1" stop-color="#8D86C6"/>
</linearGradient>
</defs>
</svg>
