<svg width="276" height="111" viewBox="0 0 276 111" fill="none" xmlns="http://www.w3.org/2000/svg">
<path d="M48.9157 19.8907C48.6656 19.8898 48.4622 20.0919 48.4613 20.342C48.4605 20.5921 48.6625 20.7956 48.9127 20.7964L48.9142 20.3436L48.9157 19.8907ZM91.6234 20.4888L91.6371 20.0359L91.6249 20.0359L91.6234 20.4888ZM108.096 19.656C108.333 19.5772 108.462 19.3209 108.383 19.0835C108.304 18.8461 108.048 18.7176 107.81 18.7963L107.953 19.2262L108.096 19.656ZM155.335 14.2889C155.094 14.3539 154.951 14.6024 155.016 14.8439C155.081 15.0854 155.329 15.2285 155.571 15.1635L155.453 14.7262L155.335 14.2889ZM219.065 2.18045L219.247 1.76579L219.149 1.72252L219.041 1.72819L219.065 2.18045ZM239.569 11.1847L239.906 10.8825L239.841 10.8095L239.751 10.77L239.569 11.1847ZM245.074 22.1247C245.059 22.3743 245.248 22.5895 245.498 22.6054C245.747 22.6213 245.963 22.4319 245.978 22.1822L245.526 22.1535L245.074 22.1247ZM206.372 37.7284C206.135 37.8074 206.006 38.0638 206.085 38.3011C206.164 38.5384 206.421 38.6668 206.658 38.5878L206.515 38.1581L206.372 37.7284ZM228.38 32.8717L228.491 32.4325L228.422 32.4153L228.352 32.4197L228.38 32.8717ZM237.784 38.0852L238.073 37.7369L238.073 37.7369L237.784 38.0852ZM237.601 38.5223C237.794 38.6821 238.079 38.6558 238.239 38.4634C238.399 38.271 238.373 37.9855 238.18 37.8256L237.891 38.174L237.601 38.5223ZM262.27 45.4172C262.347 45.6554 262.602 45.7867 262.84 45.7105C263.078 45.6342 263.209 45.3793 263.133 45.141L262.702 45.2791L262.27 45.4172ZM260.087 37.1122L260.518 36.9741L260.455 36.7755L260.262 36.6947L260.087 37.1122ZM234.746 26.4613L234.368 26.7112L234.444 26.8256L234.57 26.8788L234.746 26.4613ZM220.984 8.80655L221.301 8.48332L221.168 8.35302L220.982 8.35367L220.984 8.80655ZM215.818 11.1776L215.366 11.2115L215.387 11.4912L215.647 11.597L215.818 11.1776ZM245.996 23.4752L246.256 23.1043L246.214 23.075L246.167 23.0558L245.996 23.4752ZM252.315 32.241C252.341 32.4898 252.563 32.6706 252.812 32.6448C253.061 32.6191 253.242 32.3965 253.216 32.1477L252.766 32.1943L252.315 32.241ZM269.666 64.112C269.48 64.2787 269.464 64.565 269.631 64.7514C269.797 64.9379 270.084 64.9539 270.27 64.7871L269.968 64.4496L269.666 64.112ZM263.608 46.5884L263.886 46.9465L264.592 46.3997L263.734 46.1531L263.608 46.5884ZM224.87 34.9885C224.63 34.9194 224.379 35.0583 224.31 35.2987C224.241 35.5391 224.38 35.79 224.62 35.859L224.745 35.4237L224.87 34.9885ZM153.227 79.1762C153.038 79.0123 152.752 79.0324 152.588 79.2213C152.424 79.4101 152.444 79.6962 152.633 79.8602L152.93 79.5182L153.227 79.1762ZM191.821 108.052L191.585 108.439L191.686 108.5L191.803 108.505L191.821 108.052ZM237.191 109.905L237.172 110.358C237.271 110.362 237.369 110.333 237.45 110.276L237.191 109.905ZM256.441 96.4518L256.701 96.8231L256.935 96.6596L256.888 96.378L256.441 96.4518ZM273.069 90.8661L273.459 91.0962L273.459 91.0962L273.069 90.8661ZM268.372 86.3204L268.349 86.7727C268.483 86.7797 268.613 86.7267 268.704 86.6282L268.372 86.3204ZM238.905 92.4869L238.823 92.9324L239.003 92.9653L239.156 92.8638L238.905 92.4869ZM214.601 88.0426L214.682 87.5971L213.953 87.4637L214.167 88.1736L214.601 88.0426ZM201.068 95.3236L200.625 95.4167L200.625 95.4167L201.068 95.3236ZM199.056 93.3754L198.783 93.0135L198.783 93.0135L199.056 93.3754ZM219.931 83.6627L219.897 83.2111L219.825 83.2165L219.759 83.2438L219.931 83.6627ZM269.507 84.5163C269.269 84.5914 269.136 84.8456 269.211 85.0842C269.286 85.3228 269.541 85.4554 269.779 85.3804L269.643 84.9483L269.507 84.5163ZM271.098 65.9786L271.387 65.6298L271.301 65.5585L271.191 65.5354L271.098 65.9786ZM236.719 59.5886L236.463 59.9617L236.54 60.0153L236.633 60.0332L236.719 59.5886ZM224.196 55.7065L224.186 55.2537L224.105 55.2555L224.029 55.2856L224.196 55.7065ZM219.118 60.5648C219.023 60.7964 219.134 61.0608 219.366 61.1552C219.598 61.2496 219.862 61.1384 219.956 60.9068L219.537 60.7358L219.118 60.5648ZM0.425589 80.6458C0.175928 80.661 -0.0141329 80.8757 0.00107488 81.1253C0.0162827 81.375 0.231001 81.5651 0.480661 81.5499L0.453125 81.0978L0.425589 80.6458ZM107.212 73.8957C107.462 73.906 107.672 73.7118 107.683 73.4619C107.693 73.212 107.499 73.001 107.249 72.9907L107.23 73.4432L107.212 73.8957ZM260.438 90.3783L260.268 89.9582L260.239 89.9701L260.211 89.9861L260.438 90.3783ZM117.457 73.2747L117.464 72.8219L117.464 72.8219L117.457 73.2747ZM109.578 65.1471L110.03 65.1541L110.03 65.1541L109.578 65.1471ZM157.153 65.8858L157.606 65.8928L157.606 65.8928L157.153 65.8858ZM149.025 73.7649L149.018 74.2177L149.018 74.2177L149.025 73.7649ZM149.892 17.9637L149.899 17.5108L149.899 17.5108L149.892 17.9637ZM157.771 26.0913L157.318 26.0843L157.318 26.0843L157.771 26.0913ZM118.323 17.4735L118.316 17.9263L118.316 17.9263L118.323 17.4735ZM110.195 25.3526L109.743 25.3455L109.743 25.3455L110.195 25.3526ZM118.16 15.5011L118.167 15.0483L118.167 15.0483L118.16 15.5011ZM108.226 25.1311L108.679 25.1381L108.226 25.1311ZM149.951 15.9947L149.944 16.4476L149.951 15.9947ZM159.581 25.9285L160.034 25.9355L160.034 25.9355L159.581 25.9285ZM159.525 29.5851L159.072 29.578C159.069 29.735 159.148 29.882 159.28 29.9666C159.413 30.0512 159.579 30.0612 159.721 29.9932L159.525 29.5851ZM160.039 29.4935L160.046 29.0407L160.046 29.0407L160.039 29.4935ZM160.944 29.5076L160.937 29.9604L160.937 29.9604L160.944 29.5076ZM162.09 30.6506L161.64 30.7025L161.64 30.7026L162.09 30.6506ZM161.959 39.0718L161.511 39.0059L161.511 39.0059L161.959 39.0718ZM160.779 40.1787L160.772 40.6316L160.772 40.6316L160.779 40.1787ZM159.873 40.1647L159.88 39.7118L159.88 39.7118L159.873 40.1647ZM159.363 39.9794L159.655 39.6331C159.521 39.5204 159.335 39.4948 159.175 39.5673C159.016 39.6398 158.913 39.7975 158.91 39.9724L159.363 39.9794ZM159.246 47.5367L158.793 47.5297C158.791 47.6739 158.857 47.8105 158.972 47.8976C159.087 47.9847 159.237 48.0119 159.375 47.9709L159.246 47.5367ZM159.532 47.4975L159.525 47.9504L159.532 47.4975ZM159.907 47.8846L160.36 47.8916L160.36 47.8916L159.907 47.8846ZM159.685 62.2398L159.232 62.2328L159.232 62.2328L159.685 62.2398ZM159.298 62.615L159.291 63.0678L159.298 62.615ZM159.012 62.567L159.155 62.137C159.018 62.0917 158.868 62.1142 158.75 62.1978C158.633 62.2813 158.562 62.4158 158.56 62.5599L159.012 62.567ZM158.96 65.9453L158.507 65.9383L158.507 65.9383L158.96 65.9453ZM149.026 75.5753L149.033 75.1225L149.033 75.1225L149.026 75.5753ZM117.235 75.0817L117.228 75.5345L117.228 75.5345L117.235 75.0817ZM107.605 65.1479L107.152 65.1409L107.605 65.1479ZM125.481 0.571412L125.5 1.02388L125.481 0.571412ZM119.218 9.92212L118.767 9.8773L118.767 9.8773L119.218 9.92212ZM133.985 0.478503L133.974 0.931328L133.982 0.931382L133.985 0.478503ZM142.483 0.835402L142.516 0.383757L142.483 0.835402ZM148.453 10.3761L148.904 10.3452L148.904 10.3452L148.453 10.3761ZM149.558 15.5667L149.551 16.0195C149.704 16.0219 149.849 15.9463 149.934 15.8187C150.02 15.6911 150.035 15.5289 149.974 15.3878L149.558 15.5667ZM117.97 15.0762L117.977 14.6234L117.97 15.0762ZM117.952 15.0759L117.541 14.8843C117.476 15.0235 117.486 15.1863 117.568 15.3165C117.65 15.4468 117.792 15.5267 117.946 15.5288L117.952 15.0759ZM118.111 81.2189L117.659 81.2497L117.659 81.2497L118.111 81.2189ZM116.68 75.342L116.703 74.8897C116.541 74.8813 116.386 74.9605 116.299 75.0973C116.211 75.234 116.203 75.4073 116.278 75.5514L116.68 75.342ZM124.08 90.7596L124.114 90.3079L124.08 90.7596ZM132.578 91.1165L132.589 90.6637L132.581 90.6636L132.578 91.1165ZM147.346 81.6729L146.895 81.628L146.895 81.628L147.346 81.6729ZM148.955 75.8487L149.35 76.0702C149.429 75.9301 149.427 75.7589 149.346 75.6202C149.265 75.4815 149.117 75.3961 148.956 75.3958L148.955 75.8487ZM148.826 75.8475L148.833 75.3947L148.833 75.3947L148.826 75.8475ZM117.034 75.3539L117.027 75.8067L117.027 75.8067L117.034 75.3539ZM48.9142 20.3436L48.9127 20.7964L91.6218 20.9417L91.6234 20.4888L91.6249 20.0359L48.9157 19.8907L48.9142 20.3436ZM91.6234 20.4888L91.6096 20.9415C97.511 21.1208 102.322 21.572 108.096 19.656L107.953 19.2262L107.81 18.7963C102.224 20.6503 97.601 20.2173 91.6371 20.0361L91.6234 20.4888ZM155.453 14.7262L155.571 15.1635C178.857 8.89513 191.495 4.08985 219.089 2.63271L219.065 2.18045L219.041 1.72819C191.329 3.19159 178.581 8.03129 155.335 14.2889L155.453 14.7262ZM219.065 2.18045L218.883 2.59511L239.387 11.5994L239.569 11.1847L239.751 10.77L219.247 1.76579L219.065 2.18045ZM239.569 11.1847L239.231 11.4869C243.939 16.7422 245.271 19.0316 245.074 22.1247L245.526 22.1535L245.978 22.1822C246.202 18.6682 244.594 16.116 239.906 10.8825L239.569 11.1847ZM206.515 38.1581L206.658 38.5878C215.09 35.7818 219.685 33.8729 228.409 33.3237L228.38 32.8717L228.352 32.4197C219.486 32.9778 214.769 34.934 206.372 37.7284L206.515 38.1581ZM228.38 32.8717L228.27 33.3109C230.48 33.8672 232.006 34.5057 233.361 35.3163C234.724 36.1323 235.925 37.1292 237.494 38.4335L237.784 38.0852L238.073 37.7369C236.516 36.4424 235.26 35.3976 233.826 34.5391C232.383 33.6753 230.771 33.0065 228.491 32.4325L228.38 32.8717ZM237.784 38.0852L237.494 38.4335L237.601 38.5223L237.891 38.174L238.18 37.8256L238.073 37.7369L237.784 38.0852ZM262.702 45.2791L263.133 45.141L260.518 36.9741L260.087 37.1122L259.656 37.2503L262.27 45.4172L262.702 45.2791ZM260.087 37.1122L260.262 36.6947L234.921 26.0438L234.746 26.4613L234.57 26.8788L259.911 37.5297L260.087 37.1122ZM234.746 26.4613L235.124 26.2114C232.359 22.0336 230.4 18.9065 227.814 15.6401L227.459 15.9212L227.104 16.2024C229.659 19.4296 231.589 22.5101 234.368 26.7112L234.746 26.4613ZM227.459 15.9212L227.814 15.6401C226.073 13.4409 224.048 11.1798 221.301 8.48332L220.984 8.80655L220.667 9.12978C223.391 11.8034 225.389 14.0366 227.104 16.2024L227.459 15.9212ZM220.984 8.80655L220.982 8.35367C218.908 8.36085 217.487 8.5112 216.597 8.93206C216.133 9.1515 215.788 9.45544 215.58 9.86719C215.376 10.2706 215.33 10.7281 215.366 11.2115L215.818 11.1776L216.269 11.1437C216.24 10.7524 216.286 10.4781 216.389 10.2751C216.487 10.0806 216.661 9.90379 216.984 9.75094C217.669 9.4272 218.896 9.26667 220.985 9.25944L220.984 8.80655ZM215.818 11.1776L215.647 11.597L227.288 16.3407L227.459 15.9212L227.63 15.5018L215.989 10.7582L215.818 11.1776ZM227.459 15.9212L227.288 16.3407L245.825 23.8946L245.996 23.4752L246.167 23.0558L227.63 15.5018L227.459 15.9212ZM245.996 23.4752L245.736 23.8462C248.171 25.5513 249.724 26.8218 250.717 28.0798C251.693 29.3157 252.141 30.5567 252.315 32.241L252.766 32.1943L253.216 32.1477C253.027 30.3234 252.528 28.9117 251.428 27.5186C250.346 26.1476 248.695 24.8128 246.256 23.1043L245.996 23.4752ZM269.968 64.4496L270.27 64.7871C270.808 64.3064 272.879 62.6334 274.013 60.2898C274.585 59.1077 274.93 57.7338 274.713 56.2414C274.495 54.7459 273.718 53.1801 272.132 51.6056L271.813 51.927L271.494 52.2485C272.969 53.712 273.632 55.1059 273.816 56.372C274.001 57.6413 273.712 58.8311 273.197 59.8953C272.157 62.0445 270.245 63.5947 269.666 64.112L269.968 64.4496ZM271.813 51.927L272.132 51.6056C269.035 48.5326 266.765 47.2858 265.324 46.7478C264.602 46.4783 264.098 46.391 263.835 46.3404C263.767 46.3274 263.734 46.3201 263.716 46.3153C263.708 46.3131 263.718 46.3152 263.736 46.3235C263.75 46.3298 263.806 46.3562 263.86 46.4185C263.928 46.4959 263.975 46.6094 263.962 46.7374C263.952 46.8427 263.906 46.9109 263.891 46.9319C263.863 46.9699 263.843 46.9796 263.886 46.9465L263.608 46.5884L263.331 46.2303C263.291 46.2615 263.214 46.3217 263.157 46.4008C263.127 46.4425 263.072 46.5288 263.061 46.6506C263.047 46.7951 263.099 46.9232 263.178 47.014C263.244 47.0898 263.319 47.1284 263.357 47.1462C263.4 47.1661 263.442 47.179 263.472 47.1875C263.531 47.2042 263.602 47.218 263.664 47.2299C263.92 47.2791 264.36 47.3551 265.007 47.5964C266.303 48.0801 268.467 49.2454 271.494 52.2485L271.813 51.927ZM263.608 46.5884L263.734 46.1531L224.87 34.9885L224.745 35.4237L224.62 35.859L263.483 47.0237L263.608 46.5884ZM152.93 79.5182L152.633 79.8602C166.759 92.1263 175.23 98.4554 191.585 108.439L191.821 108.052L192.057 107.666C175.748 97.7104 167.318 91.4117 153.227 79.1762L152.93 79.5182ZM191.821 108.052L191.803 108.505L237.172 110.358L237.191 109.905L237.209 109.453L191.84 107.6L191.821 108.052ZM237.191 109.905L237.45 110.276L256.701 96.8231L256.441 96.4518L256.182 96.0806L236.931 109.534L237.191 109.905ZM256.441 96.4518L256.888 96.378C256.916 96.545 256.798 96.6081 256.87 96.5474C256.924 96.5016 257.036 96.433 257.226 96.3472C257.599 96.1787 258.165 95.9923 258.884 95.79C260.316 95.3867 262.26 94.9453 264.277 94.4677C266.284 93.9925 268.357 93.4825 270.015 92.9469C270.843 92.6793 271.582 92.4007 272.163 92.1108C272.721 91.8324 273.219 91.5033 273.459 91.0962L273.069 90.8661L272.679 90.636C272.584 90.7969 272.304 91.0281 271.759 91.3003C271.237 91.5609 270.547 91.8232 269.736 92.085C268.118 92.608 266.078 93.1104 264.068 93.5863C262.069 94.0598 260.094 94.5081 258.638 94.9181C257.912 95.1225 257.292 95.3237 256.853 95.5216C256.637 95.6191 256.436 95.7286 256.286 95.8554C256.153 95.9672 255.94 96.1973 255.994 96.5256L256.441 96.4518ZM273.069 90.8661L273.459 91.0962C273.907 90.3376 273.746 89.5557 273.347 88.8983C272.957 88.2534 272.31 87.6706 271.643 87.1997C270.97 86.7248 270.24 86.3385 269.642 86.0981C269.345 85.9787 269.066 85.8889 268.833 85.8459C268.718 85.8247 268.595 85.8111 268.477 85.8194C268.376 85.8266 268.185 85.8561 268.04 86.0126L268.372 86.3204L268.704 86.6282C268.612 86.7276 268.515 86.7248 268.542 86.7229C268.552 86.7222 268.592 86.7225 268.668 86.7366C268.819 86.7644 269.036 86.8306 269.304 86.9384C269.836 87.1525 270.505 87.5051 271.121 87.9398C271.743 88.3785 272.275 88.8758 272.573 89.3677C272.863 89.847 272.902 90.2585 272.679 90.636L273.069 90.8661ZM268.372 86.3204L268.396 85.8681C261.713 85.5204 256.618 85.5151 252.022 86.3824C247.414 87.2522 243.33 88.9949 238.654 92.11L238.905 92.4869L239.156 92.8638C243.749 89.8038 247.721 88.1159 252.19 87.2725C256.672 86.4266 261.676 86.4255 268.349 86.7727L268.372 86.3204ZM238.905 92.4869L238.986 92.0414L214.682 87.5971L214.601 88.0426L214.519 88.4881L238.823 92.9324L238.905 92.4869ZM214.601 88.0426L214.167 88.1736C214.129 88.0457 214.2 87.9949 214.13 88.1074C214.078 88.1914 213.979 88.3123 213.822 88.4698C213.511 88.7813 213.035 89.1758 212.433 89.6221C211.234 90.5117 209.588 91.5702 207.912 92.5286C206.234 93.4885 204.546 94.3364 203.262 94.8137C202.613 95.0549 202.104 95.1874 201.763 95.2085C201.591 95.2192 201.508 95.1979 201.482 95.186C201.473 95.1822 201.482 95.1846 201.494 95.1994C201.5 95.2063 201.505 95.2136 201.508 95.2204C201.511 95.2269 201.512 95.2308 201.512 95.2304L201.068 95.3236L200.625 95.4167C200.685 95.7009 200.868 95.9041 201.112 96.0131C201.331 96.1108 201.582 96.1273 201.819 96.1126C202.297 96.0829 202.909 95.9114 203.578 95.6627C204.929 95.1603 206.666 94.2848 208.362 93.3148C210.06 92.3434 211.738 91.2656 212.973 90.3496C213.588 89.8932 214.106 89.4676 214.463 89.109C214.64 88.9314 214.794 88.7548 214.898 88.587C214.985 88.4478 215.119 88.1911 215.034 87.9115L214.601 88.0426ZM201.068 95.3236L201.512 95.2304C201.379 94.5996 201.069 94.1708 200.685 93.8876C200.315 93.6138 199.901 93.4951 199.585 93.4282C199.433 93.3957 199.277 93.3707 199.183 93.3534C199.056 93.3297 199.046 93.3198 199.071 93.3336C199.091 93.3443 199.185 93.3999 199.23 93.5312C199.279 93.6734 199.231 93.7858 199.212 93.8222C199.194 93.8547 199.182 93.8604 199.208 93.8355C199.23 93.8144 199.268 93.7824 199.328 93.7373L199.056 93.3754L198.783 93.0135C198.708 93.0702 198.639 93.1262 198.582 93.1816C198.528 93.2332 198.462 93.3039 198.414 93.3924C198.365 93.4846 198.311 93.6438 198.373 93.826C198.432 93.9973 198.56 94.086 198.632 94.1255C198.76 94.1968 198.925 94.2267 199.018 94.244C199.146 94.2676 199.258 94.2846 199.397 94.3142C199.666 94.3712 199.93 94.4562 200.147 94.6163C200.352 94.7671 200.538 95.0025 200.625 95.4167L201.068 95.3236ZM199.056 93.3754L199.328 93.7373C199.431 93.6597 199.701 93.4992 200.147 93.2588C200.582 93.0247 201.156 92.7291 201.843 92.3851C203.216 91.6975 205.032 90.8213 207.067 89.8663C211.139 87.9559 216.08 85.7347 220.103 84.0816L219.931 83.6627L219.759 83.2438C215.717 84.9044 210.762 87.1323 206.682 89.0463C204.643 90.0034 202.819 90.8831 201.437 91.5752C200.746 91.9211 200.163 92.2213 199.718 92.4614C199.284 92.6953 198.951 92.8875 198.783 93.0135L199.056 93.3754ZM219.931 83.6627L219.965 84.1143C238.625 82.7099 249.288 84.5822 268.321 86.7703L268.372 86.3204L268.424 85.8705C249.424 83.686 238.662 81.7987 219.897 83.2111L219.931 83.6627ZM269.643 84.9483L269.779 85.3804C271.091 84.9678 272.288 83.8732 273.232 82.4387C274.181 80.9958 274.904 79.1642 275.247 77.1975C275.931 73.2676 275.104 68.7102 271.387 65.6298L271.098 65.9786L270.809 66.3273C274.205 69.1417 275.001 73.3302 274.354 77.0421C274.031 78.8962 273.351 80.6095 272.475 81.9409C271.594 83.2807 270.545 84.19 269.507 84.5163L269.643 84.9483ZM271.098 65.9786L271.191 65.5354C251.108 61.2995 249.6 61.615 236.805 59.1439L236.719 59.5886L236.633 60.0332C249.53 62.524 250.894 62.1801 271.004 66.4217L271.098 65.9786ZM236.719 59.5886L236.976 59.2154C234.763 57.6938 232.949 56.6652 230.986 56.0381C229.019 55.4102 226.933 55.194 224.186 55.2537L224.196 55.7065L224.206 56.1593C226.895 56.1008 228.873 56.3141 230.71 56.901C232.55 57.4886 234.279 58.4602 236.463 59.9617L236.719 59.5886ZM224.196 55.7065L224.029 55.2856C222.626 55.8432 221.664 56.4698 220.914 57.3287C220.172 58.1781 219.664 59.2254 219.118 60.5648L219.537 60.7358L219.956 60.9068C220.497 59.5814 220.959 58.6538 221.596 57.9246C222.225 57.205 223.05 56.6494 224.363 56.1274L224.196 55.7065ZM0.453125 81.0978L0.480661 81.5499C34.3398 79.4874 55.3294 77.3363 70.7063 75.8198C86.0849 74.303 95.8242 73.4239 107.212 73.8957L107.23 73.4432L107.249 72.9907C95.7896 72.5159 85.9905 73.4021 70.6174 74.9184C55.2425 76.4348 34.2669 78.5843 0.425589 80.6458L0.453125 81.0978ZM272.061 88.5885L272.131 88.1411C269.723 87.7652 267.864 87.7672 266.04 88.0965C264.226 88.4241 262.467 89.0726 260.268 89.9582L260.438 90.3783L260.607 90.7984C262.803 89.9136 264.487 89.2974 266.201 88.9879C267.905 88.68 269.661 88.6723 271.991 89.036L272.061 88.5885ZM260.438 90.3783L260.211 89.9861C258.563 90.9383 257.437 91.7773 256.572 92.7381C255.705 93.7012 255.123 94.7628 254.532 96.1246L254.947 96.305L255.362 96.4855C255.936 95.1649 256.472 94.2035 257.245 93.344C258.021 92.4823 259.057 91.699 260.664 90.7704L260.438 90.3783ZM118.323 17.4735L118.316 17.9263L149.885 18.4165L149.892 17.9637L149.899 17.5108L118.33 17.0207L118.323 17.4735ZM157.771 26.0913L157.318 26.0843L156.7 65.8788L157.153 65.8858L157.606 65.8928L158.224 26.0983L157.771 26.0913ZM149.025 73.7649L149.032 73.312L117.464 72.8219L117.457 73.2747L117.45 73.7275L149.018 74.2177L149.025 73.7649ZM109.578 65.1471L110.03 65.1541L110.648 25.3596L110.195 25.3526L109.743 25.3455L109.125 65.14L109.578 65.1471ZM117.457 73.2747L117.464 72.8219C113.294 72.7571 109.966 69.3241 110.03 65.1541L109.578 65.1471L109.125 65.14C109.052 69.8103 112.779 73.655 117.45 73.7275L117.457 73.2747ZM157.153 65.8858L156.7 65.8788C156.635 70.0488 153.202 73.3768 149.032 73.312L149.025 73.7649L149.018 74.2177C153.689 74.2902 157.533 70.563 157.606 65.8928L157.153 65.8858ZM149.892 17.9637L149.885 18.4165C154.055 18.4812 157.383 21.9142 157.318 26.0843L157.771 26.0913L158.224 26.0983C158.296 21.4281 154.569 17.5833 149.899 17.5108L149.892 17.9637ZM118.323 17.4735L118.33 17.0207C113.66 16.9481 109.815 20.6753 109.743 25.3455L110.195 25.3526L110.648 25.3596C110.713 21.1896 114.146 17.8616 118.316 17.9263L118.323 17.4735ZM118.16 15.5011L118.167 15.0483C112.515 14.9605 107.861 19.4716 107.774 25.1241L108.226 25.1311L108.679 25.1381C108.759 19.9858 113.001 15.8739 118.153 15.9539L118.16 15.5011ZM149.951 15.9947L149.958 15.5419L118.167 15.0483L118.16 15.5011L118.153 15.9539L149.944 16.4476L149.951 15.9947ZM159.581 25.9285L160.034 25.9355C160.122 20.283 155.611 15.6297 149.958 15.5419L149.951 15.9947L149.944 16.4476C155.097 16.5276 159.208 20.7692 159.128 25.9215L159.581 25.9285ZM159.525 29.5851L159.977 29.5921L160.034 25.9355L159.581 25.9285L159.128 25.9215L159.072 29.578L159.525 29.5851ZM159.525 29.5851L159.721 29.9932C159.776 29.9665 159.863 29.9437 160.032 29.9463L160.039 29.4935L160.046 29.0407C159.796 29.0368 159.555 29.0681 159.328 29.1769L159.525 29.5851ZM160.039 29.4935L160.032 29.9463L160.937 29.9604L160.944 29.5076L160.951 29.0547L160.046 29.0407L160.039 29.4935ZM160.944 29.5076L160.937 29.9604C161.208 29.9646 161.34 30.0202 161.417 30.0897C161.495 30.1606 161.596 30.3181 161.64 30.7025L162.09 30.6506L162.54 30.5987C162.483 30.1055 162.332 29.6964 162.024 29.4177C161.714 29.1376 161.323 29.0605 160.951 29.0547L160.944 29.5076ZM162.09 30.6506L161.64 30.7026C161.662 30.8909 161.675 31.4425 161.678 32.2153C161.68 32.974 161.673 33.9143 161.658 34.8555C161.644 35.7968 161.622 36.7368 161.596 37.4951C161.569 38.2674 161.539 38.8183 161.511 39.0059L161.959 39.0718L162.407 39.1377C162.444 38.8882 162.475 38.2777 162.501 37.5262C162.527 36.7607 162.549 35.8147 162.564 34.8696C162.579 33.9245 162.586 32.9782 162.583 32.2123C162.581 31.4603 162.569 30.8491 162.54 30.5987L162.09 30.6506ZM161.959 39.0718L161.511 39.0059C161.455 39.3888 161.349 39.5431 161.269 39.6115C161.19 39.6786 161.056 39.7301 160.786 39.7259L160.779 40.1787L160.772 40.6316C161.144 40.6373 161.536 40.5724 161.855 40.3021C162.172 40.0331 162.335 39.6289 162.407 39.1377L161.959 39.0718ZM160.779 40.1787L160.786 39.7259L159.88 39.7118L159.873 40.1647L159.866 40.6175L160.772 40.6316L160.779 40.1787ZM159.873 40.1647L159.88 39.7118C159.774 39.7102 159.713 39.6816 159.655 39.6331L159.363 39.9794L159.071 40.3257C159.288 40.5083 159.55 40.6126 159.866 40.6175L159.873 40.1647ZM159.246 47.5367L159.699 47.5438L159.816 39.9865L159.363 39.9794L158.91 39.9724L158.793 47.5297L159.246 47.5367ZM159.532 47.4975L159.539 47.0447C159.393 47.0424 159.251 47.0627 159.117 47.1026L159.246 47.5367L159.375 47.9709C159.422 47.9569 159.472 47.9496 159.525 47.9504L159.532 47.4975ZM159.907 47.8846L160.36 47.8916C160.367 47.431 160 47.0519 159.539 47.0447L159.532 47.4975L159.525 47.9504C159.486 47.9498 159.454 47.9172 159.455 47.8775L159.907 47.8846ZM159.685 62.2398L160.137 62.2468L160.36 47.8916L159.907 47.8846L159.455 47.8775L159.232 62.2328L159.685 62.2398ZM159.298 62.615L159.291 63.0678C159.751 63.075 160.13 62.7074 160.137 62.2468L159.685 62.2398L159.232 62.2328C159.232 62.1932 159.265 62.1616 159.305 62.1622L159.298 62.615ZM159.012 62.567L158.87 62.9969C159.003 63.0409 159.144 63.0656 159.291 63.0678L159.298 62.615L159.305 62.1622C159.252 62.1614 159.201 62.1525 159.155 62.137L159.012 62.567ZM158.96 65.9453L159.413 65.9523L159.465 62.574L159.012 62.567L158.56 62.5599L158.507 65.9383L158.96 65.9453ZM149.026 75.5753L149.019 76.0281C154.672 76.1159 159.325 71.6048 159.413 65.9523L158.96 65.9453L158.507 65.9383C158.427 71.0906 154.186 75.2025 149.033 75.1225L149.026 75.5753ZM117.235 75.0817L117.228 75.5345L149.019 76.0281L149.026 75.5753L149.033 75.1225L117.242 74.6288L117.235 75.0817ZM107.605 65.1479L107.152 65.1409C107.064 70.7934 111.576 75.4467 117.228 75.5345L117.235 75.0817L117.242 74.6288C112.09 74.5488 107.978 70.3072 108.058 65.1549L107.605 65.1479ZM108.226 25.1311L107.774 25.1241L107.152 65.1409L107.605 65.1479L108.058 65.1549L108.679 25.1381L108.226 25.1311ZM125.481 0.571412L125.461 0.118943C124.307 0.168671 123.331 0.37095 122.512 0.77573C121.686 1.1839 121.043 1.78604 120.539 2.59461C119.55 4.18092 119.096 6.57205 118.767 9.8773L119.218 9.92212L119.668 9.96695C119.999 6.64636 120.445 4.45821 121.307 3.07366C121.729 2.3968 122.25 1.91562 122.913 1.5878C123.583 1.2566 124.424 1.07023 125.5 1.02388L125.481 0.571412ZM133.985 0.478503C133.996 0.0257516 133.996 0.0257508 133.996 0.0257496C133.996 0.0257487 133.996 0.0257472 133.996 0.0257454C133.996 0.0257419 133.996 0.0257369 133.995 0.0257304C133.995 0.0257174 133.994 0.0256985 133.993 0.0256739C133.991 0.0256248 133.988 0.025553 133.984 0.0254599C133.976 0.0252738 133.964 0.0250027 133.949 0.0246586C133.918 0.0239704 133.872 0.0229901 133.812 0.0218131C133.692 0.0194593 133.515 0.0163187 133.29 0.0131553C132.84 0.00682888 132.193 0.000409411 131.406 1.2272e-05C129.834 -0.000781782 127.701 0.0224967 125.461 0.118943L125.481 0.571412L125.5 1.02388C127.723 0.928174 129.842 0.904998 131.406 0.905788C132.188 0.906183 132.831 0.912565 133.278 0.918842C133.501 0.92198 133.675 0.925092 133.794 0.927415C133.853 0.928577 133.898 0.929541 133.929 0.930212C133.944 0.930548 133.955 0.930811 133.963 0.930989C133.967 0.931078 133.97 0.931145 133.971 0.93119C133.972 0.931212 133.973 0.931229 133.974 0.93124C133.974 0.931245 133.974 0.931249 133.974 0.931252C133.974 0.931253 133.974 0.931254 133.974 0.931254C133.974 0.931255 133.974 0.931255 133.985 0.478503ZM142.483 0.835402L142.516 0.383757C140.281 0.217827 138.149 0.128335 136.578 0.0803059C135.792 0.0562847 135.145 0.0426195 134.694 0.0349574C134.469 0.0311261 134.293 0.0287953 134.173 0.0274211C134.113 0.026734 134.067 0.0262861 134.036 0.0260093C134.02 0.025871 134.008 0.0257754 134 0.0257141C133.996 0.0256835 133.993 0.0256614 133.991 0.0256469C133.99 0.0256396 133.99 0.0256342 133.989 0.0256306C133.989 0.0256288 133.989 0.0256274 133.988 0.0256264C133.988 0.0256259 133.988 0.0256255 133.988 0.0256253C133.988 0.025625 133.988 0.0256247 133.985 0.478503C133.982 0.931382 133.982 0.931382 133.982 0.931382C133.982 0.931382 133.982 0.931382 133.982 0.931382C133.983 0.931383 133.983 0.931384 133.983 0.931386C133.983 0.931389 133.984 0.931393 133.985 0.9314C133.987 0.931413 133.99 0.931434 133.993 0.931463C134.001 0.931522 134.013 0.931614 134.028 0.931749C134.058 0.93202 134.103 0.93246 134.162 0.933138C134.281 0.934494 134.455 0.936801 134.679 0.940602C135.126 0.948205 135.768 0.961779 136.55 0.985659C138.113 1.03343 140.231 1.12239 142.449 1.28705L142.483 0.835402ZM148.453 10.3761L148.904 10.3452C148.678 7.03138 148.298 4.62729 147.36 3.01106C146.881 2.18724 146.257 1.56542 145.444 1.1318C144.638 0.701775 143.669 0.469311 142.516 0.383757L142.483 0.835402L142.449 1.28705C143.523 1.36679 144.358 1.57916 145.018 1.93102C145.671 2.27928 146.176 2.77638 146.576 3.46601C147.396 4.87668 147.774 7.07763 148.001 10.4069L148.453 10.3761ZM149.558 15.5667L149.974 15.3878C149.449 14.167 149.057 12.5854 148.904 10.3452L148.453 10.3761L148.001 10.4069C148.159 12.7234 148.568 14.4097 149.142 15.7455L149.558 15.5667ZM117.97 15.0762L117.963 15.529L149.551 16.0195L149.558 15.5667L149.565 15.1138L117.977 14.6234L117.97 15.0762ZM117.952 15.0759L117.946 15.5288C117.951 15.5288 117.957 15.5289 117.963 15.529L117.97 15.0762L117.977 14.6234C117.971 14.6233 117.964 14.6232 117.958 14.6231L117.952 15.0759ZM119.218 9.92212L118.767 9.8773C118.545 12.1117 118.104 13.6803 117.541 14.8843L117.952 15.0759L118.362 15.2676C118.977 13.9502 119.438 12.2775 119.668 9.96695L119.218 9.92212ZM118.111 81.2189L118.562 81.1881C118.375 78.434 117.832 76.5726 117.081 75.1326L116.68 75.342L116.278 75.5514C116.958 76.8556 117.477 78.5889 117.659 81.2497L118.111 81.2189ZM124.08 90.7596L124.114 90.3079C123.04 90.2282 122.205 90.0158 121.546 89.664C120.892 89.3157 120.387 88.8186 119.987 88.129C119.167 86.7183 118.789 84.5174 118.562 81.1881L118.111 81.2189L117.659 81.2497C117.885 84.5636 118.265 86.9677 119.204 88.5839C119.682 89.4078 120.306 90.0296 121.119 90.4632C121.926 90.8932 122.894 91.1257 124.047 91.2112L124.08 90.7596ZM132.578 91.1165C132.581 90.6636 132.581 90.6636 132.581 90.6636C132.581 90.6636 132.581 90.6636 132.581 90.6636C132.581 90.6636 132.58 90.6636 132.58 90.6636C132.58 90.6636 132.579 90.6636 132.578 90.6636C132.576 90.6636 132.573 90.6636 132.57 90.6635C132.562 90.6635 132.551 90.6634 132.535 90.6632C132.505 90.663 132.46 90.6625 132.401 90.6619C132.282 90.6605 132.108 90.6582 131.884 90.6544C131.437 90.6468 130.795 90.6332 130.013 90.6093C128.45 90.5616 126.332 90.4726 124.114 90.3079L124.08 90.7596L124.047 91.2112C126.282 91.3772 128.414 91.4667 129.985 91.5147C130.772 91.5387 131.418 91.5524 131.869 91.56C132.094 91.5639 132.27 91.5662 132.39 91.5676C132.45 91.5683 132.496 91.5687 132.527 91.569C132.543 91.5691 132.555 91.5692 132.563 91.5693C132.567 91.5693 132.57 91.5693 132.572 91.5693C132.573 91.5693 132.574 91.5694 132.574 91.5694C132.574 91.5694 132.575 91.5694 132.575 91.5694C132.575 91.5694 132.575 91.5694 132.575 91.5694C132.575 91.5694 132.575 91.5694 132.578 91.1165ZM141.082 91.0236L141.063 90.5711C138.841 90.6668 136.721 90.69 135.157 90.6892C134.375 90.6888 133.733 90.6824 133.286 90.6761C133.062 90.673 132.888 90.6699 132.769 90.6676C132.71 90.6664 132.665 90.6654 132.634 90.6648C132.619 90.6644 132.608 90.6642 132.6 90.664C132.596 90.6639 132.594 90.6638 132.592 90.6638C132.591 90.6638 132.59 90.6638 132.59 90.6637C132.589 90.6637 132.589 90.6637 132.589 90.6637C132.589 90.6637 132.589 90.6637 132.589 90.6637C132.589 90.6637 132.589 90.6637 132.578 91.1165C132.567 91.5692 132.567 91.5692 132.567 91.5692C132.567 91.5692 132.567 91.5692 132.567 91.5692C132.567 91.5692 132.567 91.5693 132.568 91.5693C132.568 91.5693 132.569 91.5693 132.57 91.5693C132.572 91.5694 132.575 91.5694 132.579 91.5695C132.587 91.5697 132.599 91.57 132.614 91.5703C132.645 91.571 132.691 91.572 132.751 91.5732C132.871 91.5755 133.048 91.5787 133.273 91.5818C133.723 91.5882 134.37 91.5946 135.157 91.595C136.729 91.5958 138.862 91.5725 141.102 91.4761L141.082 91.0236ZM147.346 81.6729L146.895 81.628C146.565 84.9486 146.118 87.1368 145.256 88.5213C144.834 89.1982 144.314 89.6794 143.65 90.0072C142.98 90.3384 142.139 90.5248 141.063 90.5711L141.082 91.0236L141.102 91.4761C142.257 91.4263 143.232 91.224 144.051 90.8193C144.877 90.4111 145.521 89.8089 146.024 89.0004C147.013 87.4141 147.467 85.0229 147.796 81.7177L147.346 81.6729ZM148.955 75.8487L148.56 75.6271C147.766 77.0424 147.168 78.8848 146.895 81.628L147.346 81.6729L147.796 81.7177C148.06 79.0674 148.631 77.3521 149.35 76.0702L148.955 75.8487ZM148.955 75.8487L148.956 75.3958C148.915 75.3957 148.874 75.3953 148.833 75.3947L148.826 75.8475L148.819 76.3003C148.864 76.301 148.909 76.3014 148.954 76.3016L148.955 75.8487ZM148.826 75.8475L148.833 75.3947L117.041 74.901L117.034 75.3539L117.027 75.8067L148.819 76.3003L148.826 75.8475ZM117.034 75.3539L117.041 74.901C116.928 74.8993 116.815 74.8955 116.703 74.8897L116.68 75.342L116.656 75.7943C116.779 75.8006 116.903 75.8048 117.027 75.8067L117.034 75.3539Z" fill="#868688"/>
</svg>
