<svg width="152" height="46" viewBox="0 0 152 46" fill="none" xmlns="http://www.w3.org/2000/svg">
<path d="M4.61469 15.336C4.80402 15.0047 5.13535 14.981 5.60869 15.265L9.51369 17.395C9.89235 17.6317 9.96335 17.9394 9.72669 18.318C8.87469 19.6434 8.04635 21.2764 7.24169 23.217C6.48435 25.1577 6.10569 27.193 6.10569 29.323C6.10569 31.3584 6.43702 33.0387 7.09969 34.364C7.80969 35.7367 8.70902 36.8017 9.79769 37.559C10.8864 38.3637 12.0697 38.9317 13.3477 39.263C14.6257 39.5944 15.88 39.76 17.1107 39.76C20.14 39.76 22.625 38.979 24.5657 37.417C26.5064 35.855 27.4767 33.3227 27.4767 29.82V9.08803C27.4767 8.6147 27.7134 8.37803 28.1867 8.37803H32.7307C33.204 8.37803 33.4407 8.6147 33.4407 9.08803V29.891C33.4407 34.7664 31.997 38.5767 29.1097 41.322C26.2697 44.0674 22.1517 45.44 16.7557 45.44C14.1997 45.44 11.8804 45.085 9.79769 44.375C7.76235 43.7124 6.01102 42.7184 4.54369 41.393C3.12369 40.0677 2.01135 38.4347 1.20669 36.494C0.402021 34.6007 -0.000312373 32.3997 -0.000312373 29.891C-0.000312373 27.0984 0.449354 24.424 1.34869 21.868C2.29535 19.2647 3.38402 17.0874 4.61469 15.336ZM16.7557 6.60303C16.2824 6.60303 16.0457 6.36637 16.0457 5.89303V0.710033C16.0457 0.236701 16.2824 3.41237e-05 16.7557 3.41237e-05H21.5837C22.057 3.41237e-05 22.2937 0.236701 22.2937 0.710033V5.89303C22.2937 6.36637 22.057 6.60303 21.5837 6.60303H16.7557ZM49.9996 45.44C49.5262 45.44 49.2896 45.2034 49.2896 44.73V40.612C49.2896 40.1387 49.5262 39.902 49.9996 39.902H58.5196C59.4662 39.902 60.3419 39.7837 61.1466 39.547C61.9512 39.3577 62.6376 39.0027 63.2056 38.482C63.8209 38.0087 64.2942 37.3224 64.6256 36.423C64.9569 35.571 65.1226 34.4824 65.1226 33.157V31.311H57.5256C55.4429 31.311 53.5496 31.0744 51.8456 30.601C50.1889 30.0804 48.7689 29.2757 47.5856 28.187C46.4022 27.051 45.5029 25.56 44.8876 23.714C44.2722 21.868 43.9646 19.596 43.9646 16.898C43.9646 14.2 44.3196 11.857 45.0296 9.86903C45.7869 7.8337 46.7809 6.17703 48.0116 4.89903C49.2896 3.5737 50.7569 2.60337 52.4136 1.98803C54.0702 1.32537 55.8216 0.994034 57.6676 0.994034C61.8802 0.994034 65.1699 2.2247 67.5366 4.68603C69.9032 7.10003 71.0866 11.0287 71.0866 16.472V25.773H75.9856C76.9322 25.773 77.6422 25.986 78.1156 26.412C78.5889 26.7907 78.8256 27.4534 78.8256 28.4C78.8256 29.6307 78.5889 30.4354 78.1156 30.814C77.6896 31.1454 76.9796 31.311 75.9856 31.311H71.0866V33.015C71.0866 35.2397 70.7789 37.133 70.1636 38.695C69.5956 40.257 68.7672 41.535 67.6786 42.529C66.6372 43.523 65.3592 44.2567 63.8446 44.73C62.3299 45.2034 60.6496 45.44 58.8036 45.44H49.9996ZM57.6676 6.53203C55.3009 6.53203 53.4076 7.4787 51.9876 9.37203C50.6149 11.2654 49.9286 13.774 49.9286 16.898C49.9286 20.2587 50.5912 22.578 51.9166 23.856C53.2892 25.134 55.3009 25.773 57.9516 25.773H65.1226V16.472C65.1226 13.348 64.5309 10.9104 63.3476 9.15903C62.2116 7.4077 60.3182 6.53203 57.6676 6.53203ZM78.1159 31.311C77.1693 31.311 76.5303 31.1217 76.1989 30.743C75.8676 30.317 75.7019 29.607 75.7019 28.613C75.7019 27.4297 75.8676 26.6724 76.1989 26.341C76.4829 25.9624 77.1219 25.773 78.1159 25.773H85.9259C86.8726 25.773 87.5826 25.9624 88.0559 26.341C88.5293 26.7197 88.7659 27.406 88.7659 28.4C88.7659 29.5834 88.5293 30.3644 88.0559 30.743C87.6299 31.1217 86.9199 31.311 85.9259 31.311H78.1159ZM88.0202 31.311C87.0736 31.311 86.4346 31.1217 86.1032 30.743C85.7719 30.317 85.6062 29.607 85.6062 28.613C85.6062 27.4297 85.7719 26.6724 86.1032 26.341C86.3872 25.9624 87.0262 25.773 88.0202 25.773H95.8302C96.7769 25.773 97.4869 25.9624 97.9602 26.341C98.4336 26.7197 98.6702 27.406 98.6702 28.4C98.6702 29.5834 98.4336 30.3644 97.9602 30.743C97.5342 31.1217 96.8242 31.311 95.8302 31.311H88.0202ZM97.9245 31.311C96.9778 31.311 96.3388 31.1217 96.0075 30.743C95.6762 30.317 95.5105 29.607 95.5105 28.613C95.5105 27.4297 95.6762 26.6724 96.0075 26.341C96.2915 25.9624 96.9305 25.773 97.9245 25.773H105.735C106.681 25.773 107.391 25.9624 107.865 26.341C108.338 26.7197 108.575 27.406 108.575 28.4C108.575 29.5834 108.338 30.3644 107.865 30.743C107.439 31.1217 106.729 31.311 105.735 31.311H97.9245ZM107.829 31.311C106.882 31.311 106.243 31.1217 105.912 30.743C105.58 30.317 105.415 29.607 105.415 28.613C105.415 27.4297 105.58 26.6724 105.912 26.341C106.196 25.9624 106.835 25.773 107.829 25.773H115.639C116.585 25.773 117.295 25.9624 117.769 26.341C118.242 26.7197 118.479 27.406 118.479 28.4C118.479 29.5834 118.242 30.3644 117.769 30.743C117.343 31.1217 116.633 31.311 115.639 31.311H107.829ZM150.393 25.773C150.866 25.773 151.103 26.0097 151.103 26.483V30.601C151.103 31.0744 150.866 31.311 150.393 31.311H117.662C115.769 31.311 114.822 30.3644 114.822 28.471C114.822 27.2877 115.059 26.554 115.532 26.27C115.958 25.9387 116.668 25.773 117.662 25.773H125.756C124.667 24.6844 123.744 23.3117 122.987 21.655C122.23 19.9984 121.851 18.0104 121.851 15.691C121.851 14.2237 122.064 12.638 122.49 10.934C122.916 9.1827 123.697 7.57337 124.833 6.10603C125.969 4.6387 127.507 3.4317 129.448 2.48503C131.436 1.49103 133.968 0.994034 137.045 0.994034C139.838 0.994034 142.252 1.5147 144.287 2.55603C146.322 3.55003 147.955 4.94637 149.186 6.74503C149.423 7.1237 149.352 7.45503 148.973 7.73903L145.849 10.295C145.47 10.579 145.139 10.5554 144.855 10.224C142.725 7.7627 140.051 6.53203 136.832 6.53203C133.897 6.53203 131.72 7.4077 130.3 9.15903C128.88 10.863 128.17 13.0167 128.17 15.62C128.17 17.3714 128.454 18.8624 129.022 20.093C129.59 21.3237 130.229 22.3414 130.939 23.146C131.696 23.9507 132.454 24.566 133.211 24.992C133.968 25.3707 134.56 25.631 134.986 25.773H150.393Z" fill="url(#paint0_linear_1288_4318)"/>
<defs>
<linearGradient id="paint0_linear_1288_4318" x1="75.5381" y1="0.811036" x2="75.5381" y2="49.311" gradientUnits="userSpaceOnUse">
<stop stop-color="#8C87C9"/>
<stop offset="1" stop-color="#52549D"/>
</linearGradient>
</defs>
</svg>
